<?xml version="1.0" encoding="UTF-8" standalone="no"?>
<!-- Created with Inkscape (http://www.inkscape.org/) -->

<svg
   width="180"
   height="180"
   viewBox="0 0 180 180"
   version="1.1"
   id="svg1"
   xmlns="http://www.w3.org/2000/svg"
   xmlns:svg="http://www.w3.org/2000/svg">
  <defs
     id="defs1">
    <clipPath
       clipPathUnits="userSpaceOnUse"
       id="clipPath44">
      <path
         style="fill:#225500;fill-opacity:1;stroke-width:2.47018"
         d="M -4.2774512,227.56092 C 7.8270285,212.66974 -9.059362,170.52405 -30.329988,142.36162 -52.307162,113.26373 -53.154766,71.674775 -0.61816603,81.23622 21.570529,85.274472 55.479101,112.37377 67.44052,104.53378 77.608651,97.869189 65.16333,57.511238 65.16333,57.511238 84.503045,78.473772 91.056101,132.566 48.22581,116.62675 16.963962,104.99268 1.2051259,90.786848 -10.747337,92.44831 c -52.649392,7.318576 14.1479421,63.45638 20.827046,90.87326 4.428709,18.17927 5.777366,40.70177 4.500413,49.54497 z"
         id="path44" />
    </clipPath>
    <clipPath
       clipPathUnits="userSpaceOnUse"
       id="clipPath43">
      <path
         style="fill:#225500;fill-opacity:1;stroke-width:2.47018"
         d="M 15.935346,227.04258 C 26.670477,211.1359 6.1103114,170.65518 -17.575782,144.49163 -42.048657,117.45903 -46.583915,76.109404 6.5939475,80.970522 29.053478,83.023603 65.233296,107.0066 76.451719,98.135975 85.988247,90.595266 70.010288,51.501085 70.010288,51.501085 91.134102,70.66451 102.46196,123.96171 58.386076,111.88652 26.21507,103.07284 9.2576581,90.321647 -2.5001865,93.037328 -54.292302,104.99963 17.22365,154.98768 26.309633,181.70361 c 6.024634,17.71449 9.366829,40.02842 8.879745,48.95005 z"
         id="path43" />
    </clipPath>
    <clipPath
       clipPathUnits="userSpaceOnUse"
       id="clipPath42">
      <path
         style="fill:#225500;fill-opacity:1;stroke-width:2.47018"
         d="M 116.52372,195.51084 C 118.94044,176.47338 82.34627,149.59818 49.412279,136.91299 15.384322,123.80644 -7.2952125,88.93527 42.369225,69.314893 63.34487,61.028278 106.45007,66.13756 112.46845,53.163738 117.58454,42.134989 85.705832,14.433034 85.705832,14.433034 113.19836,22.023394 147.3251,64.500178 102.53599,73.579203 69.844392,80.205988 48.960529,76.462872 39.687383,84.184957 -1.1598849,118.19996 85.208397,130.60384 105.35712,150.36048 c 13.35999,13.1 26.3976,31.51474 29.98254,39.69893 z"
         id="path42" />
    </clipPath>
    <clipPath
       clipPathUnits="userSpaceOnUse"
       id="clipPath41">
      <path
         style="fill:#225500;fill-opacity:1;stroke-width:2.47018"
         d="M 185.72992,131.5548 C 180.22821,113.17011 135.88447,103.42116 100.63498,105.1634 64.214616,106.96353 29.354058,84.267679 66.814387,46.21194 82.635658,30.139198 124.1159,17.350431 124.36329,3.0507896 124.57359,-9.1050088 84.20627,-21.519902 84.20627,-21.519902 c 28.2107,-4.19629 76.61806,20.81650361 39.34532,47.259591 -27.205381,19.300823 -47.815485,24.337716 -53.165938,35.154115 -23.568203,47.645146 60.421808,24.001675 86.846198,33.903568 17.52119,6.565628 36.9004,18.121058 43.49316,24.151678 z"
         id="path41" />
    </clipPath>
    <clipPath
       clipPathUnits="userSpaceOnUse"
       id="clipPath40">
      <path
         style="fill:#225500;fill-opacity:1;stroke-width:2.47018"
         d="M 227.10797,14.974572 C 212.80253,2.1831753 169.90933,17.068832 140.77773,36.991486 110.67848,57.575913 69.09568,56.466711 81.117265,4.4379014 86.19455,-17.53633 114.85853,-50.132944 107.58975,-62.449831 c -6.17903,-10.470306 -47.07761,0.06327 -47.07761,0.06327 21.848858,-18.332479 76.18942,-22.334406 58.25356,19.698895 C 105.6743,-12.00754 90.743072,3.0657798 91.840589,15.083154 96.675044,68.018473 155.89211,3.9351253 183.59276,-1.4472135 201.9602,-5.0160779 224.5212,-5.3040423 233.29457,-3.6126199 Z"
         id="path40" />
    </clipPath>
    <clipPath
       clipPathUnits="userSpaceOnUse"
       id="clipPath39">
      <path
         style="fill:#225500;fill-opacity:1;stroke-width:2.47018"
         d="m 214.26982,-76.750961 c -18.21738,-6.032622 -51.62822,24.710265 -70.41004,54.590111 -19.40568,30.8723623 -57.987392,46.422659 -67.6908,-6.087906 -4.09821,-22.177699 9.205084,-63.4958 -2.369214,-71.896784 -9.839045,-7.14149 -43.154402,18.814956 -43.154402,18.814956 12.735656,-25.519706 60.982383,-50.840956 61.278744,-5.141874 0.216317,33.355777 -7.473021,53.130022 -1.678347,63.715086 25.524959,46.626137 54.306429,-35.74475 77.569029,-51.718086 15.42469,-10.591422 36.00293,-19.844426 44.72377,-21.788586 z"
         id="path39" />
    </clipPath>
    <clipPath
       clipPathUnits="userSpaceOnUse"
       id="clipPath38">
      <path
         style="fill:#225500;fill-opacity:1;stroke-width:2.47018"
         d="m 208.50153,-91.265426 c -18.58822,-4.769022 -49.81196,28.19288 -66.50032,59.290478 -17.24269,32.13056405 -54.667075,50.29028 -67.948948,-1.43116 -5.609564,-21.844415 4.828705,-63.977605 -7.294503,-71.565012 -10.305659,-6.44989 -41.762413,21.730295 -41.762413,21.730295 10.955461,-26.333065 57.351991,-54.903575 60.781817,-9.332422 2.503432,33.262403 -3.811631,53.517443 2.695349,63.680171 28.662598,44.765785 51.727098,-39.385063 73.839428,-56.916198 14.66199,-11.62435 34.55717,-22.266876 43.12415,-24.804556 z"
         id="path38" />
    </clipPath>
    <clipPath
       clipPathUnits="userSpaceOnUse"
       id="clipPath37">
      <path
         style="fill:#225500;fill-opacity:1;stroke-width:2.47018"
         d="m 204.89288,-99.101833 c -18.7556,-4.061127 -48.7077,30.060443 -64.2055,61.76817 -16.01259,32.7609591 -52.721858,52.325971 -67.954372,1.145057 -6.433413,-21.616125 2.400555,-64.114644 -10.001497,-71.237144 -10.542699,-6.05468 -40.908857,23.297432 -40.908857,23.297432 9.949597,-26.729342 55.230005,-57.037712 60.384462,-11.629281 3.762242,33.14363 -1.780641,53.623452 5.106821,63.532271 30.338583,43.647344 50.197283,-41.317167 71.629323,-59.67374 14.2109,-12.171672 33.68846,-23.560552 42.1531,-26.421092 z"
         id="path37" />
    </clipPath>
    <clipPath
       clipPathUnits="userSpaceOnUse"
       id="clipPath36">
      <path
         style="fill:#225500;fill-opacity:1;stroke-width:2.47018"
         d="m 226.0513,-26.515635 c -16.39043,-9.980954 -55.86734,12.446318 -80.89677,37.327829 -25.86082,25.708001 -66.953687,32.168391 -64.580048,-21.178412 1.0025,-22.530883 23.270588,-59.790719 13.885995,-70.582861 -7.977627,-9.174156 -46.283394,8.611185 -46.283394,8.611185 18.156542,-21.99528 70.866907,-35.798536 60.862207,8.792934 -7.30244,32.547336 -19.24821,50.081452 -15.986668,61.6997216 C 107.41939,49.332062 154.0148,-24.439231 180.2775,-34.762328 c 17.41397,-6.844927 39.54758,-11.225025 48.48223,-11.154907 z"
         id="path36" />
    </clipPath>
    <clipPath
       clipPathUnits="userSpaceOnUse"
       id="clipPath35">
      <path
         style="fill:#225500;fill-opacity:1;stroke-width:2.47018"
         d="M 213.12962,79.862575 C 203.12308,63.48776 157.75916,65.364921 124.11835,76.035353 89.360109,87.060231 49.865664,74.000798 76.387287,27.652993 87.588625,8.0781189 124.43837,-14.862221 121.03235,-28.752502 118.13696,-40.560314 75.938489,-42.274674 75.938489,-42.274674 102.14747,-53.523758 155.33179,-41.677254 126.03129,-6.6062695 104.64483,18.992058 85.999634,29.116442 83.583245,40.939424 c -10.643942,52.079041 64.544105,7.806084 92.619675,10.644779 18.61603,1.882244 40.30069,8.115788 48.21296,12.266558 z"
         id="path35" />
    </clipPath>
    <clipPath
       clipPathUnits="userSpaceOnUse"
       id="clipPath34">
      <path
         style="fill:#225500;fill-opacity:1;stroke-width:2.47018"
         d="M 139.19319,180.07644 C 139.3026,160.88651 99.741632,138.60783 65.520996,129.97592 30.163657,121.05729 3.4545799,89.167081 50.398602,63.71567 70.225286,52.966333 113.63209,52.853976 118.04633,39.250468 121.79878,27.686438 86.8196,4.0198497 86.8196,4.0198497 115.02548,8.2483993 154.01345,46.312171 110.64148,60.712368 78.984255,71.22308 57.80179,70.018977 49.52475,78.800346 c -36.459524,38.681044 50.77366,40.606794 73.15237,57.796584 14.83863,11.39801 29.99645,28.11094 34.53973,35.80454 z"
         id="path34" />
    </clipPath>
    <clipPath
       clipPathUnits="userSpaceOnUse"
       id="clipPath33">
      <path
         style="fill:#225500;fill-opacity:1;stroke-width:2.47018"
         d="M 61.623796,219.09992 C 68.911976,201.34752 40.573548,165.87439 12.076023,145.05485 -17.368103,123.54376 -30.19037,83.971686 22.868978,77.95329 45.278455,75.411437 85.568396,91.563334 94.755974,80.60298 102.56613,71.285836 78.99583,36.241703 78.99583,36.241703 103.56541,50.72577 125.46093,100.62064 79.852416,97.729829 46.562739,95.619826 27.372776,86.570407 16.40943,91.612914 c -48.292429,22.211736 31.871134,56.666626 46.183566,80.986376 9.490128,16.12566 17.285756,37.29899 18.617107,46.13417 z"
         id="path33" />
    </clipPath>
    <clipPath
       clipPathUnits="userSpaceOnUse"
       id="clipPath32">
      <path
         style="fill:#225500;fill-opacity:1;stroke-width:2.47018"
         d="M 2.5545376,227.58678 C 14.206617,212.33901 -3.9371353,170.71914 -26.043452,143.20782 -48.884075,114.78266 -50.979556,73.237882 1.8203537,81.218175 24.120257,84.588631 58.826917,110.65798 70.547635,102.46251 80.511153,95.495734 66.860127,55.529502 66.860127,55.529502 86.820302,75.902125 94.993942,129.7733 51.704543,115.12675 20.107592,104.43622 3.9294787,90.709776 -7.9677321,92.729232 -60.373742,101.62474 8.0784294,155.73238 15.577421,182.93644 c 4.97235,18.03816 6.996394,40.51003 5.985438,49.38758 z"
         id="path32" />
    </clipPath>
    <clipPath
       clipPathUnits="userSpaceOnUse"
       id="clipPath31">
      <path
         style="fill:#225500;fill-opacity:1;stroke-width:2.47018"
         d="m -89.291239,209.35458 c 16.804926,-9.26606 16.953417,-54.66856 7.794398,-88.7519 -9.46326,-35.215486 5.345104,-74.088 50.463577,-45.525106 C -11.977595,87.141038 9.2959569,124.97752 23.324359,122.19456 35.249584,119.82883 38.844804,77.748848 38.844804,77.748848 48.913448,104.43358 34.70607,157.03645 0.97716233,126.20053 -23.641583,103.69337 -32.924084,84.615063 -44.627494,81.673631 -96.179835,68.716928 -55.30526,145.80522 -59.39364,173.7262 c -2.710872,18.51353 -9.90561,39.89851 -14.405231,47.61772 z"
         id="path31" />
    </clipPath>
    <clipPath
       clipPathUnits="userSpaceOnUse"
       id="clipPath30">
      <path
         style="fill:#225500;fill-opacity:1;stroke-width:2.47018"
         d="m -137.02477,181.73189 c 18.5403,-4.95205 29.60483,-48.98596 28.91256,-84.271691 -0.71527,-36.457808 23.008143,-70.627378 59.932013,-32.050916 15.5947,16.292667 27.143139,58.135187 41.429081,58.808097 12.1441528,0.57203 25.75508,-39.407879 25.75508,-39.407879 3.354738,28.323099 -23.0878196,75.964509 -48.409766,37.921209 -18.482502,-27.767822 -22.903703,-48.518717 -33.556053,-54.188751 -46.922525,-24.97592 -25.789498,59.680631 -36.473527,85.798581 -7.084238,17.318 -19.211368,36.34467 -25.435548,42.75501 z"
         id="path30" />
    </clipPath>
    <clipPath
       clipPathUnits="userSpaceOnUse"
       id="clipPath29">
      <path
         style="fill:#225500;fill-opacity:1;stroke-width:2.47018"
         d="m -129.02399,187.49688 c 18.30839,-5.75052 27.4551,-50.22239 25.23499,-85.44501 -2.29386,-36.392607 19.927145,-71.557743 58.487391,-34.616939 16.285819,15.601851 29.635931,56.904849 43.9376125,56.958299 C 10.793536,124.43866 22.659859,83.906692 22.659859,83.906692 27.238334,112.05789 2.8843008,160.8 -24.061817,123.88929 -43.729802,96.948152 -49.04573,76.408249 -59.933692,71.204971 -107.89407,48.285059 -83.11377,131.94672 -92.656406,158.50296 c -6.327419,17.60861 -17.618974,37.14275 -23.559634,43.81668 z"
         id="path29" />
    </clipPath>
    <clipPath
       clipPathUnits="userSpaceOnUse"
       id="clipPath28">
      <path
         style="fill:#225500;fill-opacity:1;stroke-width:2.47018"
         d="m -56.950793,220.36078 c 15.228754,-11.67692 8.580063,-56.59022 -5.577126,-88.91878 -14.627453,-33.402409 -5.804045,-74.053454 43.081278,-52.5653 20.6465875,9.075465 47.343589,43.30167 60.797437,38.45039 11.43681,-4.12396 8.693314,-46.268035 8.693314,-46.268035 13.949198,24.877143 7.775065,79.013935 -30.1892,53.573645 -27.7101338,-18.56887 -39.743572,-36.042942 -51.755402,-37.19956 -52.910899,-5.094785 -0.958748,65.00736 -0.822071,93.22574 0.09063,18.71073 -3.822318,40.93168 -7.115899,49.23741 z"
         id="path28" />
    </clipPath>
    <clipPath
       clipPathUnits="userSpaceOnUse"
       id="clipPath27">
      <path
         style="fill:#225500;fill-opacity:1;stroke-width:2.47018"
         d="M 11.934286,227.28801 C 22.947894,211.57286 3.1038487,170.73632 -20.117788,144.15969 -44.11078,116.70027 -47.9171,75.277181 5.1669022,81.074094 27.586791,83.522405 63.338618,108.13886 74.711528,99.467194 84.379381,92.095608 69.092412,52.726092 69.092412,52.726092 89.875451,72.25857 100.2629,125.74701 56.406517,112.89744 24.395724,103.51854 7.6655112,90.470681 -4.1383373,92.978866 -56.133096,104.02717 14.491393,155.26698 23.105456,182.13878 c 5.711719,17.81785 8.660411,40.18718 8.016279,49.09885 z"
         id="path27" />
    </clipPath>
    <clipPath
       clipPathUnits="userSpaceOnUse"
       id="clipPath26">
      <path
         style="fill:#225500;fill-opacity:1;stroke-width:2.47018"
         d="M 71.504081,216.07738 C 77.979064,198.01249 48.059898,163.86205 18.64685,144.35732 -11.74321,124.20471 -26.348232,85.255341 26.3833,76.835065 48.654324,73.278783 89.635799,87.58549 98.316478,76.219455 105.69573,66.55745 80.55925,32.619157 80.55925,32.619157 c 25.20162,13.35406 49.33904,62.203798 3.646323,61.385892 -33.351136,-0.596987 -52.932031,-8.766151 -63.655228,-3.231272 -47.234595,24.380583 34.410092,55.161773 49.81152,78.806903 10.212208,15.67833 18.960748,36.47604 20.691709,45.24169 z"
         id="path26" />
    </clipPath>
    <clipPath
       clipPathUnits="userSpaceOnUse"
       id="clipPath25">
      <path
         style="fill:#225500;fill-opacity:1;stroke-width:2.47018"
         d="M 96.961093,205.91458 C 101.21746,187.20232 67.409905,156.89624 35.865416,141.06882 3.2731163,124.71567 -15.908256,87.804498 35.42863,73.106209 57.110629,66.898425 99.514774,76.174826 106.76614,63.847677 112.93037,53.368651 83.896317,22.69824 83.896317,22.69824 110.52052,32.925865 140.35533,78.519683 94.89565,83.200621 61.714611,86.617241 41.293668,80.861222 31.313607,87.645042 -12.64755,117.52709 72.105382,138.2702 90.237597,159.89238 c 12.022903,14.33699 23.208183,33.93217 25.980343,42.42617 z"
         id="path25" />
    </clipPath>
  </defs>
  <g
     id="layer1"
     style="display:inline">
    <g
       id="g44"
       transform="matrix(-0.85535715,0,0,0.85535715,155.62223,-10.259353)"
       style="display:inline">
      <path
         style="fill:#ff2a2a;fill-opacity:1;stroke-width:2.47018"
         d="m 131.16087,196.17273 c -0.3355,15.613 -3.69603,25.31775 -3.69603,25.31775 l 4.06563,-7.20724 3.88081,7.76165 c -2.08107,-5.48615 -3.12488,-16.26014 -4.25041,-25.87216 z"
         id="path2" />
      <ellipse
         style="fill:#5aa02c;fill-opacity:1;stroke-width:2.47018"
         id="path1"
         cx="111.61052"
         cy="205.25336"
         rx="10.348865"
         ry="12.751279"
         transform="rotate(-5.5130108)" />
      <ellipse
         style="fill:#000000;fill-opacity:1;stroke-width:2.47018"
         id="path3"
         cx="125.13068"
         cy="200.04935"
         rx="1.2474078"
         ry="1.2936081" />
      <ellipse
         style="fill:#000000;fill-opacity:1;stroke-width:2.47018"
         id="path3-3"
         cx="137.48462"
         cy="199.7937"
         rx="1.2474078"
         ry="1.2936081" />
      <path
         style="fill:#5aa02c;fill-opacity:1;stroke-width:2.47018"
         d="M 120.74165,192.9345 C 122.74441,173.84905 85.575291,147.77481 52.373613,135.80775 18.069079,123.44319 -5.3623152,89.072712 43.864367,68.378527 64.655127,59.638392 107.86111,63.810465 113.59635,50.709016 118.47175,39.571775 85.999029,12.568579 85.999029,12.568579 113.64989,19.560165 148.69095,61.285892 104.10954,71.335345 71.56955,78.670447 50.609331,75.381694 41.506052,83.303319 1.4070314,118.19728 88.024292,128.7228 108.59727,148.03726 c 13.6413,12.80681 26.12349,29.50578 29.8853,37.6102 z"
         id="path4" />
      <rect
         style="fill:#2d5016;fill-opacity:1;stroke-width:2"
         id="rect4"
         width="61.645885"
         height="6.8827929"
         x="43.306137"
         y="63.669594"
         transform="rotate(-33.115883)"
         clip-path="url(#clipPath44)" />
      <rect
         style="fill:#2d5016;fill-opacity:1;stroke-width:2"
         id="rect4-6"
         width="61.645885"
         height="6.8827929"
         x="54.506638"
         y="73.461525"
         transform="rotate(-28.024212)"
         clip-path="url(#clipPath43)" />
      <rect
         style="fill:#2d5016;fill-opacity:1;stroke-width:2"
         id="rect4-6-7"
         width="61.645885"
         height="6.8827929"
         x="86.985954"
         y="40.996246"
         transform="rotate(-1.244242)"
         clip-path="url(#clipPath42)" />
      <rect
         style="fill:#2d5016;fill-opacity:1;stroke-width:2"
         id="rect4-6-7-5"
         width="61.645885"
         height="6.8827929"
         x="95.483337"
         y="2.491802"
         transform="rotate(22.650562)"
         clip-path="url(#clipPath41)" />
      <rect
         style="fill:#2d5016;fill-opacity:1;stroke-width:2"
         id="rect4-6-7-5-3"
         width="61.645885"
         height="6.8827929"
         x="81.41478"
         y="-51.857677"
         transform="rotate(54.188587)"
         clip-path="url(#clipPath40)" />
      <rect
         style="fill:#2d5016;fill-opacity:1;stroke-width:2"
         id="rect4-6-7-5-3-5"
         width="61.645885"
         height="6.8827929"
         x="54.187023"
         y="-76.86055"
         transform="rotate(77.668384)"
         clip-path="url(#clipPath39)" />
      <rect
         style="fill:#2d5016;fill-opacity:1;stroke-width:2"
         id="rect4-6-7-5-3-5-6"
         width="61.645885"
         height="6.8827929"
         x="49.160759"
         y="-66.660652"
         transform="rotate(81.600964)"
         clip-path="url(#clipPath38)" />
      <rect
         style="fill:#2d5016;fill-opacity:1;stroke-width:2"
         id="rect4-6-7-5-3-5-6-2"
         width="61.645885"
         height="6.8827929"
         x="46.129971"
         y="-52.688145"
         transform="rotate(83.77293)"
         clip-path="url(#clipPath37)" />
      <rect
         style="fill:#2d5016;fill-opacity:1;stroke-width:2"
         id="rect4-6-7-5-3-5-6-2-9"
         width="61.645885"
         height="6.8827929"
         x="58.242836"
         y="-7.2791448"
         transform="rotate(64.651153)"
         clip-path="url(#clipPath36)" />
      <rect
         style="fill:#2d5016;fill-opacity:1;stroke-width:2"
         id="rect4-6-7-5-3-5-6-2-9-1"
         width="61.645885"
         height="6.8827929"
         x="42.431507"
         y="46.537613"
         transform="rotate(37.419317)"
         clip-path="url(#clipPath35)" />
      <rect
         style="fill:#2d5016;fill-opacity:1;stroke-width:2"
         id="rect4-6-7-5-3-5-6-2-9-1-2"
         width="61.645885"
         height="6.8827929"
         x="-0.3122797"
         y="92.428169"
         transform="rotate(5.6638244)"
         clip-path="url(#clipPath34)" />
      <rect
         style="fill:#2d5016;fill-opacity:1;stroke-width:2"
         id="rect4-6-7-5-3-5-6-2-9-1-2-7"
         width="61.645885"
         height="6.8827929"
         x="-30.393194"
         y="112.12998"
         transform="rotate(-16.329915)"
         clip-path="url(#clipPath33)" />
      <rect
         style="fill:#2d5016;fill-opacity:1;stroke-width:2"
         id="rect4-6-7-5-3-5-6-2-9-1-2-7-0"
         width="61.645885"
         height="6.8827929"
         x="-59.60746"
         y="123.03506"
         transform="rotate(-31.395937)"
         clip-path="url(#clipPath32)" />
      <rect
         style="fill:#2d5016;fill-opacity:1;stroke-width:2"
         id="rect4-6-7-5-3-5-6-2-9-1-2-7-0-9"
         width="61.645885"
         height="6.8827929"
         x="-106.25893"
         y="117.03119"
         transform="rotate(-55.137621)"
         clip-path="url(#clipPath31)" />
      <rect
         style="fill:#2d5016;fill-opacity:1;stroke-width:2"
         id="rect4-6-7-5-3-5-6-2-9-1-2-7-0-9-3"
         width="61.645885"
         height="6.8827929"
         x="-133.04874"
         y="111.67625"
         transform="rotate(-69.055101)"
         clip-path="url(#clipPath30)" />
      <rect
         style="fill:#2d5016;fill-opacity:1;stroke-width:2"
         id="rect4-6-7-5-3-5-6-2-9-1-2-7-0-9-3-6"
         width="61.645885"
         height="6.8827929"
         x="-127.0631"
         y="133.13428"
         transform="rotate(-66.572416)"
         clip-path="url(#clipPath29)" />
      <rect
         style="fill:#2d5016;fill-opacity:1;stroke-width:2"
         id="rect4-6-7-5-3-5-6-2-9-1-2-7-0-9-3-6-0"
         width="61.645885"
         height="6.8827929"
         x="-72.867928"
         y="173.45073"
         transform="rotate(-46.52967)"
         clip-path="url(#clipPath28)" />
      <rect
         style="fill:#2d5016;fill-opacity:1;stroke-width:2"
         id="rect4-6-7-5-3-5-6-2-9-1-2-7-0-9-3-6-0-6"
         width="61.645885"
         height="6.8827929"
         x="-10.289841"
         y="192.80394"
         transform="rotate(-29.033336)"
         clip-path="url(#clipPath27)" />
      <rect
         style="fill:#2d5016;fill-opacity:1;stroke-width:2"
         id="rect4-6-7-5-3-5-6-2-9-1-2-7-0-9-3-6-0-6-2"
         width="61.645885"
         height="6.8827929"
         x="46.498844"
         y="193.98349"
         transform="rotate(-13.72867)"
         clip-path="url(#clipPath26)" />
      <rect
         style="fill:#2d5016;fill-opacity:1;stroke-width:2"
         id="rect4-6-7-5-3-5-6-2-9-1-2-7-0-9-3-6-0-6-2-6"
         width="61.645885"
         height="6.8827929"
         x="78.600739"
         y="195.3353"
         transform="rotate(-6.8242076)"
         clip-path="url(#clipPath25)" />
    </g>
  </g>
</svg>
