<svg xmlns="http://www.w3.org/2000/svg" xmlns:xlink="http://www.w3.org/1999/xlink" version="1.1" viewBox="0 0 2500 1000" style="background: #111111"><g transform="translate(25,100)"><rect width="450" height="300" rx="20" ry="20" x="0" y="0" fill="#111111" stroke-width="2" stroke="#3c7fc0" stroke-dasharray=""/><text x="225" y="95" text-anchor="middle" dominant-baseline="hanging" fill="#ffffff" font-size="30px" font-family="Tahoma, Verdana, Helvetica, Arial"><tspan x="225" dy="40px">Boundary, Container</tspan></text></g><g transform="translate(525,100)"><rect width="450" height="300" rx="3" ry="3" x="0" y="0" fill="#111111" stroke-width="2" stroke="#0f5eaa" stroke-dasharray=""/><text x="225" y="95" text-anchor="middle" dominant-baseline="hanging" fill="#ffffff" font-size="30px" font-family="Tahoma, Verdana, Helvetica, Arial"><tspan x="225" dy="40px">Boundary, Sistema</tspan></text></g><g transform="translate(1025,100)"><rect width="450" height="300" rx="20" ry="20" x="0" y="0" fill="#c62828" stroke-width="2" stroke="#b22424" stroke-dasharray=""/><text x="225" y="95" text-anchor="middle" dominant-baseline="hanging" fill="#ffffff" font-size="30px" font-family="Tahoma, Verdana, Helvetica, Arial"><tspan x="225" dy="40px">Dados</tspan></text></g><g transform="translate(1525,100)"><rect width="450" height="300" rx="20" ry="20" x="0" y="0" fill="#999999" stroke-width="2" stroke="#8a8a8a" stroke-dasharray=""/><text x="225" y="95" text-anchor="middle" dominant-baseline="hanging" fill="#ffffff" font-size="30px" font-family="Tahoma, Verdana, Helvetica, Arial"><tspan x="225" dy="40px">Externo</tspan></text></g><g transform="translate(2025,100)"><rect width="450" height="300" rx="20" ry="20" x="0" y="0" fill="#546e7a" stroke-width="2" stroke="#4c636e" stroke-dasharray=""/><text x="225" y="95" text-anchor="middle" dominant-baseline="hanging" fill="#ffffff" font-size="30px" font-family="Tahoma, Verdana, Helvetica, Arial"><tspan x="225" dy="40px">Infra</tspan></text></g><g transform="translate(25,600)"><rect width="450" height="300" rx="20" ry="20" x="0" y="0" fill="#f57c00" stroke-width="2" stroke="#dd7000" stroke-dasharray=""/><text x="225" y="95" text-anchor="middle" dominant-baseline="hanging" fill="#ffffff" font-size="30px" font-family="Tahoma, Verdana, Helvetica, Arial"><tspan x="225" dy="40px">Middleware</tspan></text></g><g transform="translate(525,600)"><rect width="450" height="300" rx="20" ry="20" x="0" y="0" fill="#2e7d32" stroke-width="2" stroke="#29712d" stroke-dasharray=""/><text x="225" y="95" text-anchor="middle" dominant-baseline="hanging" fill="#ffffff" font-size="30px" font-family="Tahoma, Verdana, Helvetica, Arial"><tspan x="225" dy="40px">Rotas</tspan></text></g><g transform="translate(1025,600)"><rect width="450" height="300" rx="20" ry="20" x="0" y="0" fill="#7b1fa2" stroke-width="2" stroke="#6f1c92" stroke-dasharray=""/><text x="225" y="95" text-anchor="middle" dominant-baseline="hanging" fill="#ffffff" font-size="30px" font-family="Tahoma, Verdana, Helvetica, Arial"><tspan x="225" dy="40px">Servico</tspan></text></g><g transform="translate(1525,670)"><path d="M422,0 L422,44 L450,30 L 422,16" style="fill:#707070" /><path d="M0,30 L422,30" style="stroke:#707070; stroke-width: 2; fill: none; stroke-dasharray: 8 8;" /><text x="225" y="55" text-anchor="middle" dominant-baseline="hanging" fill="#707070" font-size="30px" font-family="Tahoma, Verdana, Helvetica, Arial"><tspan x="225" dy="40px">Relationship</tspan></text></g></svg>