<svg xmlns="http://www.w3.org/2000/svg" xmlns:xlink="http://www.w3.org/1999/xlink" version="1.1" style="background: #111111" viewBox="0 0 2550 2000"><style id="v-3" type="text/css">        .joint-element .scalable * {            vector-effect: non-scaling-stroke;        }    </style><defs joint-selector="defs"><marker id="v-2-480243263" orient="auto" overflow="visible" markerUnits="userSpaceOnUse"><path id="v-95" stroke="#707070" fill="#707070" transform="rotate(180)" d="M 20 -10 0 0 20 10 Z"></path></marker></defs><g  joint-selector="layers" transform="matrix(1,0,0,1,0,0)"><g style="pointer-events: none;" ></g><g ></g><g  style="user-select: none;"><!--z-index:0--><!--z-index:1--><!--z-index:2--><!--z-index:3--><!--z-index:4--><!--z-index:5--><!--z-index:6--><!--z-index:7--><!--z-index:8--><!--z-index:9--><!--z-index:10--><!--z-index:11--><!--z-index:12--><!--z-index:13--><!--z-index:14--><!--z-index:15--><!--z-index:16--><!--z-index:17--><!--z-index:18--><!--z-index:19--><!--z-index:20--><!--z-index:21--><g   id="j_329"  transform="translate(20,1956)"><g id="v-3807"><text  id="v-3808" font-size="24px" xml:space="preserve" y="0.8em" font-weight="normal" text-anchor="start" fill="#cccccc" pointer-events="none" display="block" font-family="Tahoma, Verdana, Helvetica, Arial"><tspan  dy="0">segunda-feira, 22 de junho de 2026 às 07:08 Horário Padrão do Amazonas</tspan></text></g></g><!--z-index:22--><g   id="j_328"  transform="translate(20,1922)"><g id="v-3805"><text  id="v-3806" font-size="24px" xml:space="preserve" y="0.8em" font-weight="normal" text-anchor="start" fill="#cccccc" pointer-events="none" display="block" font-family="Tahoma, Verdana, Helvetica, Arial"><tspan  dy="0">Diagrama de Container do BichoHub (Nível 2)</tspan></text></g></g><!--z-index:23--><g   id="j_327"  transform="translate(20,1876)"><g id="v-3803"><text  id="v-3804" font-size="36px" xml:space="preserve" y="0.8em" font-weight="normal" text-anchor="start" fill="#cccccc" pointer-events="none" display="block" font-family="Tahoma, Verdana, Helvetica, Arial"><tspan  dy="0">Container View: BichoHub</tspan></text></g></g><!--z-index:24--><g   id="j_330"  transform="translate(199,868)" style=""><g  id="v-3812" style="opacity: 1;"><rect  x="0" y="160" width="400" height="240" rx="70" id="v-3814" stroke-width="2" pointer-events="visiblePainted" fill="#08427b" stroke="#073b6f" stroke-dasharray="" style="fill: rgb(8, 66, 123); stroke: rgb(7, 59, 111);"></rect><circle  cx="200" cy="88.88888888888889" r="88.88888888888889" id="v-3813" stroke-width="2" pointer-events="visiblePainted" fill="#08427b" stroke="#073b6f" stroke-dasharray="" style="fill: rgb(8, 66, 123); stroke: rgb(7, 59, 111);"></circle><line  x1="80" y1="266.6666666666667" x2="80" y2="400" id="v-3820" stroke="#073b6f" stroke-width="1" stroke-dasharray="" style="stroke: rgb(7, 59, 111);"></line><line  x1="320" y1="266.6666666666667" x2="320" y2="400" id="v-3821" stroke="#073b6f" stroke-width="1" stroke-dasharray="" style="stroke: rgb(7, 59, 111);"></line><text  id="v-3815" font-size="30.799999999999997px" xml:space="preserve" y="234.4" font-weight="bold" text-anchor="middle" pointer-events="visible" font-family="Tahoma, Verdana, Helvetica, Arial" fill="#ffffff" dominant-baseline="hanging" transform="matrix(1,0,0,1,200,0)" style="fill: rgb(255, 255, 255);"><tspan  dy="0">Cidadão</tspan></text><text  id="v-3816" font-size="15.399999999999999px" xml:space="preserve" y="273.2" text-anchor="middle" font-family="Tahoma, Verdana, Helvetica, Arial" fill="#ffffff" dominant-baseline="hanging" transform="matrix(1,0,0,1,200,0)" style="display: block; fill: rgb(255, 255, 255);"><tspan  dy="0">[Person]</tspan></text><text  id="v-3817" font-size="22px" xml:space="preserve" y="303.6" text-anchor="middle" font-family="Tahoma, Verdana, Helvetica, Arial" fill="#ffffff" dominant-baseline="hanging" transform="matrix(1,0,0,1,200,0)" style="display: block; fill: rgb(255, 255, 255);"><tspan  dy="0">Solicita resgate/coleta de animal</tspan></text><g  id="v-3818" font-weight="normal" text-anchor="middle" color="#ffffff" transform="matrix(1,0,0,1,197.5,368)" style="fill: rgb(255, 255, 255);" display="none"><g ></g><g ></g><g ></g><g ></g></g><image  id="v-3819"></image></g></g><!--z-index:25--><g   id="j_331"  transform="translate(199,418)" style=""><g  id="v-3825" style="opacity: 1;"><rect  x="0" y="160" width="400" height="240" rx="70" id="v-3827" stroke-width="2" pointer-events="visiblePainted" fill="#08427b" stroke="#073b6f" stroke-dasharray="" style="fill: rgb(8, 66, 123); stroke: rgb(7, 59, 111);"></rect><circle  cx="200" cy="88.88888888888889" r="88.88888888888889" id="v-3826" stroke-width="2" pointer-events="visiblePainted" fill="#08427b" stroke="#073b6f" stroke-dasharray="" style="fill: rgb(8, 66, 123); stroke: rgb(7, 59, 111);"></circle><line  x1="80" y1="266.6666666666667" x2="80" y2="400" id="v-3833" stroke="#073b6f" stroke-width="1" stroke-dasharray="" style="stroke: rgb(7, 59, 111);"></line><line  x1="320" y1="266.6666666666667" x2="320" y2="400" id="v-3834" stroke="#073b6f" stroke-width="1" stroke-dasharray="" style="stroke: rgb(7, 59, 111);"></line><text  id="v-3828" font-size="30.799999999999997px" xml:space="preserve" y="234.4" font-weight="bold" text-anchor="middle" pointer-events="visible" font-family="Tahoma, Verdana, Helvetica, Arial" fill="#ffffff" dominant-baseline="hanging" transform="matrix(1,0,0,1,200,0)" style="fill: rgb(255, 255, 255);"><tspan  dy="0">Coletor</tspan></text><text  id="v-3829" font-size="15.399999999999999px" xml:space="preserve" y="273.2" text-anchor="middle" font-family="Tahoma, Verdana, Helvetica, Arial" fill="#ffffff" dominant-baseline="hanging" transform="matrix(1,0,0,1,200,0)" style="display: block; fill: rgb(255, 255, 255);"><tspan  dy="0">[Person]</tspan></text><text  id="v-3830" font-size="22px" xml:space="preserve" y="303.6" text-anchor="middle" font-family="Tahoma, Verdana, Helvetica, Arial" fill="#ffffff" dominant-baseline="hanging" transform="matrix(1,0,0,1,200,0)" style="display: block; fill: rgb(255, 255, 255);"><tspan  dy="0">Atende ocorrências em campo</tspan></text><g  id="v-3831" font-weight="normal" text-anchor="middle" color="#ffffff" transform="matrix(1,0,0,1,197.5,368)" style="fill: rgb(255, 255, 255);" display="none"><g ></g><g ></g><g ></g><g ></g></g><image  id="v-3832"></image></g></g><!--z-index:26--><g   id="j_332"  transform="translate(199,1342)" style=""><g  id="v-3838" style="opacity: 1;"><rect  x="0" y="160" width="400" height="240" rx="70" id="v-3840" stroke-width="2" pointer-events="visiblePainted" fill="#08427b" stroke="#073b6f" stroke-dasharray="" style="fill: rgb(8, 66, 123); stroke: rgb(7, 59, 111);"></rect><circle  cx="200" cy="88.88888888888889" r="88.88888888888889" id="v-3839" stroke-width="2" pointer-events="visiblePainted" fill="#08427b" stroke="#073b6f" stroke-dasharray="" style="fill: rgb(8, 66, 123); stroke: rgb(7, 59, 111);"></circle><line  x1="80" y1="266.6666666666667" x2="80" y2="400" id="v-3846" stroke="#073b6f" stroke-width="1" stroke-dasharray="" style="stroke: rgb(7, 59, 111);"></line><line  x1="320" y1="266.6666666666667" x2="320" y2="400" id="v-3847" stroke="#073b6f" stroke-width="1" stroke-dasharray="" style="stroke: rgb(7, 59, 111);"></line><text  id="v-3841" font-size="30.799999999999997px" xml:space="preserve" y="234.4" font-weight="bold" text-anchor="middle" pointer-events="visible" font-family="Tahoma, Verdana, Helvetica, Arial" fill="#ffffff" dominant-baseline="hanging" transform="matrix(1,0,0,1,200,0)" style="fill: rgb(255, 255, 255);"><tspan  dy="0">Administrador</tspan></text><text  id="v-3842" font-size="15.399999999999999px" xml:space="preserve" y="273.2" text-anchor="middle" font-family="Tahoma, Verdana, Helvetica, Arial" fill="#ffffff" dominant-baseline="hanging" transform="matrix(1,0,0,1,200,0)" style="display: block; fill: rgb(255, 255, 255);"><tspan  dy="0">[Person]</tspan></text><text  id="v-3843" font-size="22px" xml:space="preserve" y="303.6" text-anchor="middle" font-family="Tahoma, Verdana, Helvetica, Arial" fill="#ffffff" dominant-baseline="hanging" transform="matrix(1,0,0,1,200,0)" style="display: block; fill: rgb(255, 255, 255);"><tspan  dy="0">Gerencia usuários e sistema</tspan></text><g  id="v-3844" font-weight="normal" text-anchor="middle" color="#ffffff" transform="matrix(1,0,0,1,197.5,368)" style="fill: rgb(255, 255, 255);" display="none"><g ></g><g ></g><g ></g><g ></g></g><image  id="v-3845"></image></g></g><!--z-index:27--><g   id="j_333"  transform="translate(1849,142)" style=""><g  id="v-3851" style="opacity: 1;"><rect  id="v-3852" rx="20" ry="20" stroke-width="2" pointer-events="visiblePainted" fill="#999999" stroke="#8a8a8a" stroke-dasharray="" width="450" height="300" style="fill: rgb(153, 153, 153); stroke: rgb(138, 138, 138);"></rect><text  id="v-3853" font-size="25.2px" xml:space="preserve" y="99.80000000000001" font-weight="bold" text-anchor="middle" pointer-events="visible" font-family="Tahoma, Verdana, Helvetica, Arial" fill="#ffffff" dominant-baseline="hanging" transform="matrix(1,0,0,1,225,0)" style="fill: rgb(255, 255, 255);"><tspan  dy="0">PostgreSQL + PostGIS</tspan></text><text  id="v-3854" font-size="12.6px" xml:space="preserve" y="133" text-anchor="middle" font-family="Tahoma, Verdana, Helvetica, Arial" fill="#ffffff" dominant-baseline="hanging" transform="matrix(1,0,0,1,225,0)" style="display: block; fill: rgb(255, 255, 255);"><tspan  dy="0">[Software System]</tspan></text><text  id="v-3855" font-size="18px" xml:space="preserve" y="160.60000000000002" text-anchor="middle" font-family="Tahoma, Verdana, Helvetica, Arial" fill="#ffffff" dominant-baseline="hanging" transform="matrix(1,0,0,1,225,0)" style="display: block; fill: rgb(255, 255, 255);"><tspan  dy="0">Banco de dados espacial e transacional</tspan><tspan dy="1.2em" x="0" >(PostgreSQL 15 + PostGIS 3.4)</tspan></text><g  id="v-3856" color="#ffffff" transform="matrix(1,0,0,1,222.5,268)" style="fill: rgb(255, 255, 255);" display="none"><g ></g><g ></g><g ></g><g ></g></g><image  id="v-3857"></image></g></g><!--z-index:28--><g   id="j_334"  transform="translate(1299,142)" style=""><g  id="v-3861" style="opacity: 1;"><rect  id="v-3862" rx="20" ry="20" stroke-width="2" pointer-events="visiblePainted" fill="#999999" stroke="#8a8a8a" stroke-dasharray="" width="450" height="300" style="fill: rgb(153, 153, 153); stroke: rgb(138, 138, 138);"></rect><text  id="v-3863" font-size="25.2px" xml:space="preserve" y="99.80000000000001" font-weight="bold" text-anchor="middle" pointer-events="visible" font-family="Tahoma, Verdana, Helvetica, Arial" fill="#ffffff" dominant-baseline="hanging" transform="matrix(1,0,0,1,225,0)" style="fill: rgb(255, 255, 255);"><tspan  dy="0">WhatsApp Web</tspan></text><text  id="v-3864" font-size="12.6px" xml:space="preserve" y="133" text-anchor="middle" font-family="Tahoma, Verdana, Helvetica, Arial" fill="#ffffff" dominant-baseline="hanging" transform="matrix(1,0,0,1,225,0)" style="display: block; fill: rgb(255, 255, 255);"><tspan  dy="0">[Software System]</tspan></text><text  id="v-3865" font-size="18px" xml:space="preserve" y="160.60000000000002" text-anchor="middle" font-family="Tahoma, Verdana, Helvetica, Arial" fill="#ffffff" dominant-baseline="hanging" transform="matrix(1,0,0,1,225,0)" style="display: block; fill: rgb(255, 255, 255);"><tspan  dy="0">Infraestrutura do WhatsApp Web (navegador</tspan><tspan dy="1.2em" x="0" >headless)</tspan></text><g  id="v-3866" color="#ffffff" transform="matrix(1,0,0,1,222.5,268)" style="fill: rgb(255, 255, 255);" display="none"><g ></g><g ></g><g ></g><g ></g></g><image  id="v-3867"></image></g></g><!--z-index:29--><g   id="j_336"  transform="translate(699,668)" style="; opacity: 1;"><g id="v-3881"><rect  id="v-3882" width="1650" height="1003" rx="0" ry="0" stroke-width="2" pointer-events="none" stroke="#0f5eaa" fill="#111111" opacity="1" stroke-dasharray=""></rect><text  id="v-3883" font-size="33.599999999999994px" xml:space="preserve" y="964" font-weight="bold" text-anchor="start" pointer-events="visible" font-family="Tahoma, Verdana, Helvetica, Arial" fill="#ffffff" transform="matrix(1,0,0,1,15,0)"><tspan  dy="0">BichoHub</tspan></text><text  id="v-3884" font-size="16.799999999999997px" xml:space="preserve" y="988" font-weight="normal" text-anchor="start" pointer-events="visible" font-family="Tahoma, Verdana, Helvetica, Arial" fill="#ffffff" transform="matrix(1,0,0,1,15,0)"><tspan  dy="0">[Software System]</tspan></text><image  id="v-3885" pointer-events="visible"></image></g></g><!--z-index:30--><g   id="j_335"  transform="translate(749,718)" style=""><g  id="v-3874" style="opacity: 1;"><rect  id="v-3875" rx="20" ry="20" stroke-width="2" pointer-events="visiblePainted" fill="#438dd5" stroke="#3c7fc0" stroke-dasharray="" width="450" height="300" style="fill: rgb(67, 141, 213); stroke: rgb(60, 127, 192);"></rect><text  id="v-3876" font-size="28px" xml:space="preserve" y="95.5" font-weight="bold" text-anchor="middle" pointer-events="visible" font-family="Tahoma, Verdana, Helvetica, Arial" fill="#ffffff" dominant-baseline="hanging" transform="matrix(1,0,0,1,225,0)" style="fill: rgb(255, 255, 255);"><tspan  dy="0">App Android</tspan></text><text  id="v-3877" font-size="14px" xml:space="preserve" y="131.5" text-anchor="middle" font-family="Tahoma, Verdana, Helvetica, Arial" fill="#ffffff" dominant-baseline="hanging" transform="matrix(1,0,0,1,225,0)" style="display: block; fill: rgb(255, 255, 255);"><tspan  dy="0">[Container: Kotlin, Jetpack Compose, Material3, Retrofit]</tspan></text><text  id="v-3878" font-size="20px" xml:space="preserve" y="160.5" text-anchor="middle" font-family="Tahoma, Verdana, Helvetica, Arial" fill="#ffffff" dominant-baseline="hanging" transform="matrix(1,0,0,1,225,0)" style="display: block; fill: rgb(255, 255, 255);"><tspan  dy="0">Interface mobile para cidadãos, coletores e</tspan><tspan dy="1.2em" x="0" >administradores</tspan></text><g  id="v-3879" color="#ffffff" transform="matrix(1,0,0,1,210,268)" style="fill: rgb(255, 255, 255);" display="none"><g  transform="translate(5 0)"><svg xmlns="http://www.w3.org/2000/svg" width="20" height="20" fill="currentColor" viewBox="0 0 16 16"><path fill-rule="evenodd" d="M6.5 12a5.5 5.5 0 1 0 0-11 5.5 5.5 0 0 0 0 11zM13 6.5a6.5 6.5 0 1 1-13 0 6.5 6.5 0 0 1 13 0z"></path><path d="M10.344 11.742c.03.04.062.078.098.115l3.85 3.85a1 1 0 0 0 1.415-1.414l-3.85-3.85a1.007 1.007 0 0 0-.115-.1 6.538 6.538 0 0 1-1.398 1.4z"></path><path fill-rule="evenodd" d="M6.5 3a.5.5 0 0 1 .5.5V6h2.5a.5.5 0 0 1 0 1H7v2.5a.5.5 0 0 1-1 0V7H3.5a.5.5 0 0 1 0-1H6V3.5a.5.5 0 0 1 .5-.5z"></path></svg></g><g ></g><g ></g><g ></g></g><image  id="v-3880"></image></g></g><!--z-index:31--><g   id="j_337"  transform="translate(1299,918)" style=""><g  id="v-3892" style="opacity: 1;"><rect  id="v-3893" rx="20" ry="20" stroke-width="2" pointer-events="visiblePainted" fill="#438dd5" stroke="#3c7fc0" stroke-dasharray="" width="450" height="300" style="fill: rgb(67, 141, 213); stroke: rgb(60, 127, 192);"></rect><text  id="v-3894" font-size="28px" xml:space="preserve" y="107.5" font-weight="bold" text-anchor="middle" pointer-events="visible" font-family="Tahoma, Verdana, Helvetica, Arial" fill="#ffffff" dominant-baseline="hanging" transform="matrix(1,0,0,1,225,0)" style="fill: rgb(255, 255, 255);"><tspan  dy="0">Servidor Backend</tspan></text><text  id="v-3895" font-size="14px" xml:space="preserve" y="143.5" text-anchor="middle" font-family="Tahoma, Verdana, Helvetica, Arial" fill="#ffffff" dominant-baseline="hanging" transform="matrix(1,0,0,1,225,0)" style="display: block; fill: rgb(255, 255, 255);"><tspan  dy="0">[Container: Node.js 20, TypeScript 6, Express 5]</tspan></text><text  id="v-3896" font-size="20px" xml:space="preserve" y="172.5" text-anchor="middle" font-family="Tahoma, Verdana, Helvetica, Arial" fill="#ffffff" dominant-baseline="hanging" transform="matrix(1,0,0,1,225,0)" style="display: block; fill: rgb(255, 255, 255);"><tspan  dy="0">API REST, lógica de negócio e orquestração</tspan></text><g  id="v-3897" color="#ffffff" transform="matrix(1,0,0,1,210,268)" style="fill: rgb(255, 255, 255);" display="none"><g  transform="translate(5 0)"><svg xmlns="http://www.w3.org/2000/svg" width="20" height="20" fill="currentColor" viewBox="0 0 16 16"><path fill-rule="evenodd" d="M6.5 12a5.5 5.5 0 1 0 0-11 5.5 5.5 0 0 0 0 11zM13 6.5a6.5 6.5 0 1 1-13 0 6.5 6.5 0 0 1 13 0z"></path><path d="M10.344 11.742c.03.04.062.078.098.115l3.85 3.85a1 1 0 0 0 1.415-1.414l-3.85-3.85a1.007 1.007 0 0 0-.115-.1 6.538 6.538 0 0 1-1.398 1.4z"></path><path fill-rule="evenodd" d="M6.5 3a.5.5 0 0 1 .5.5V6h2.5a.5.5 0 0 1 0 1H7v2.5a.5.5 0 0 1-1 0V7H3.5a.5.5 0 0 1 0-1H6V3.5a.5.5 0 0 1 .5-.5z"></path></svg></g><g ></g><g ></g><g ></g></g><image  id="v-3898"></image></g></g><!--z-index:32--><g   id="j_338"  transform="translate(1849,1242)" style=""><g  id="v-3905" style="opacity: 1;"><rect  id="v-3906" rx="20" ry="20" stroke-width="2" pointer-events="visiblePainted" fill="#438dd5" stroke="#3c7fc0" stroke-dasharray="" width="450" height="300" style="fill: rgb(67, 141, 213); stroke: rgb(60, 127, 192);"></rect><text  id="v-3907" font-size="28px" xml:space="preserve" y="95.5" font-weight="bold" text-anchor="middle" pointer-events="visible" font-family="Tahoma, Verdana, Helvetica, Arial" fill="#ffffff" dominant-baseline="hanging" transform="matrix(1,0,0,1,225,0)" style="fill: rgb(255, 255, 255);"><tspan  dy="0">ML Pipeline</tspan></text><text  id="v-3908" font-size="14px" xml:space="preserve" y="131.5" text-anchor="middle" font-family="Tahoma, Verdana, Helvetica, Arial" fill="#ffffff" dominant-baseline="hanging" transform="matrix(1,0,0,1,225,0)" style="display: block; fill: rgb(255, 255, 255);"><tspan  dy="0">[Container: Python, Ultralytics YOLOv8n-cls]</tspan></text><text  id="v-3909" font-size="20px" xml:space="preserve" y="160.5" text-anchor="middle" font-family="Tahoma, Verdana, Helvetica, Arial" fill="#ffffff" dominant-baseline="hanging" transform="matrix(1,0,0,1,225,0)" style="display: block; fill: rgb(255, 255, 255);"><tspan  dy="0">Classificação hierárquica de animais por</tspan><tspan dy="1.2em" x="0" >imagem (cascata 2 níveis)</tspan></text><g  id="v-3910" color="#ffffff" transform="matrix(1,0,0,1,210,268)" style="fill: rgb(255, 255, 255);" display="none"><g  transform="translate(5 0)"><svg xmlns="http://www.w3.org/2000/svg" width="20" height="20" fill="currentColor" viewBox="0 0 16 16"><path fill-rule="evenodd" d="M6.5 12a5.5 5.5 0 1 0 0-11 5.5 5.5 0 0 0 0 11zM13 6.5a6.5 6.5 0 1 1-13 0 6.5 6.5 0 0 1 13 0z"></path><path d="M10.344 11.742c.03.04.062.078.098.115l3.85 3.85a1 1 0 0 0 1.415-1.414l-3.85-3.85a1.007 1.007 0 0 0-.115-.1 6.538 6.538 0 0 1-1.398 1.4z"></path><path fill-rule="evenodd" d="M6.5 3a.5.5 0 0 1 .5.5V6h2.5a.5.5 0 0 1 0 1H7v2.5a.5.5 0 0 1-1 0V7H3.5a.5.5 0 0 1 0-1H6V3.5a.5.5 0 0 1 .5-.5z"></path></svg></g><g ></g><g ></g><g ></g></g><image  id="v-3911"></image></g></g><!--z-index:33--><g   id="j_339"  transform="translate(749,1242)" style=""><g  id="v-3918" style="opacity: 1;"><rect  id="v-3919" rx="20" ry="20" stroke-width="2" pointer-events="visiblePainted" fill="#438dd5" stroke="#3c7fc0" stroke-dasharray="" width="450" height="300" style="fill: rgb(67, 141, 213); stroke: rgb(60, 127, 192);"></rect><text  id="v-3920" font-size="28px" xml:space="preserve" y="95.5" font-weight="bold" text-anchor="middle" pointer-events="visible" font-family="Tahoma, Verdana, Helvetica, Arial" fill="#ffffff" dominant-baseline="hanging" transform="matrix(1,0,0,1,225,0)" style="fill: rgb(255, 255, 255);"><tspan  dy="0">Bot WhatsApp</tspan></text><text  id="v-3921" font-size="14px" xml:space="preserve" y="131.5" text-anchor="middle" font-family="Tahoma, Verdana, Helvetica, Arial" fill="#ffffff" dominant-baseline="hanging" transform="matrix(1,0,0,1,225,0)" style="display: block; fill: rgb(255, 255, 255);"><tspan  dy="0">[Container: whatsapp-web.js 1.26, Puppeteer]</tspan></text><text  id="v-3922" font-size="20px" xml:space="preserve" y="160.5" text-anchor="middle" font-family="Tahoma, Verdana, Helvetica, Arial" fill="#ffffff" dominant-baseline="hanging" transform="matrix(1,0,0,1,225,0)" style="display: block; fill: rgb(255, 255, 255);"><tspan  dy="0">Atendimento conversacional via WhatsApp</tspan><tspan dy="1.2em" x="0" >para registro de ocorrências</tspan></text><g  id="v-3923" color="#ffffff" transform="matrix(1,0,0,1,222.5,268)" style="fill: rgb(255, 255, 255);" display="none"><g ></g><g ></g><g ></g><g ></g></g><image  id="v-3924"></image></g></g><!--z-index:34--><g   id="j_340"  style="opacity: 1;"><path fill="none" cursor="pointer" stroke="transparent" stroke-linecap="round" joint-selector="wrapper" id="v-3939" stroke-width="10" stroke-linejoin="round" d="M 599 1068 L 639 1068 C 645.6666666666666 1068 649 1064.6666666666665 649 1058 L 649 903 C 649 896.5 652.3333333333333 893.1666666666666 659 893 L 689 893 C 695.6666666666666 893.1666666666666 699 889.8333333333333 699 883 L 699 878 C 699 871.3333333333333 702.3333333333333 868 709 868 L 749 868"></path><path fill="none" pointer-events="none" joint-selector="line" id="v-3938" stroke="#707070" stroke-width="2" stroke-linejoin="round" stroke-dasharray="8 8" d="M 599 1068 L 639 1068 C 645.6666666666666 1068 649 1064.6666666666665 649 1058 L 649 903 C 649 896.5 652.3333333333333 893.1666666666666 659 893 L 689 893 C 695.6666666666666 893.1666666666666 699 889.8333333333333 699 883 L 699 878 C 699 871.3333333333333 702.3333333333333 868 709 868 L 749 868" marker-end="url(#v-2-480243263)"></path><g id="v-3931" ><g id="v-3932"  label-idx="0" cursor="move" transform="matrix(1,0,0,1,649,946.7681884765625)" style="cursor: default;"><rect joint-selector="rect" id="v-3935" fill="#111111" rx="3" ry="3" x="-2.220446049250313e-16" y="0" width="0" height="0" pointer-events="none"  style="display: block;"></rect><text joint-selector="text" id="v-3934" font-size="12px" xml:space="preserve" display="none" fill="#707070" text-anchor="middle" pointer-events="none" font-family="Tahoma, Verdana, Helvetica, Arial" font-weight="normal"  style="display: block;"><tspan style="fill-opacity: 0; stroke-opacity: 0;"  dy="0.3em">-</tspan></text></g><g id="v-3933"  label-idx="1" cursor="move" transform="matrix(1,0,0,1,639,946.7681884765625)" style="cursor: default;"><rect joint-selector="rect" id="v-3937" fill="#ffffff" rx="3" ry="3" x="-2.220446049250313e-16" y="0" width="0" height="0"  display="none"></rect><text joint-selector="text" id="v-3936" fill="#000000" font-size="14" text-anchor="middle" text-vertical-anchor="middle" pointer-events="none"></text></g></g></g><!--z-index:35--><g   id="j_341"  style="opacity: 1;"><path fill="none" cursor="pointer" stroke="transparent" stroke-linecap="round" joint-selector="wrapper" id="v-3954" stroke-width="10" stroke-linejoin="round" d="M 599 618 L 689 618 C 695.6666666666666 618 699 618 699 618 L 699 618 C 699 618.1666666666666 699 621.5 699 628 L 699 858 C 699 864.6666666666666 702.3333333333333 868 709 868 L 749 868"></path><path fill="none" pointer-events="none" joint-selector="line" id="v-3953" stroke="#707070" stroke-width="2" stroke-linejoin="round" stroke-dasharray="8 8" d="M 599 618 L 689 618 C 695.6666666666666 618 699 618 699 618 L 699 618 C 699 618.1666666666666 699 621.5 699 628 L 699 858 C 699 864.6666666666666 702.3333333333333 868 709 868 L 749 868" marker-end="url(#v-2-480243263)"></path><g id="v-3946" ><g id="v-3947"  label-idx="0" cursor="move" transform="matrix(1,0,0,1,699,716.1152954101562)" style="cursor: default;"><rect joint-selector="rect" id="v-3950" fill="#111111" rx="3" ry="3" x="-2.220446049250313e-16" y="0" width="0" height="0" pointer-events="none"  style="display: block;"></rect><text joint-selector="text" id="v-3949" font-size="12px" xml:space="preserve" display="none" fill="#707070" text-anchor="middle" pointer-events="none" font-family="Tahoma, Verdana, Helvetica, Arial" font-weight="normal"  style="display: block;"><tspan style="fill-opacity: 0; stroke-opacity: 0;"  dy="0.3em">-</tspan></text></g><g id="v-3948"  label-idx="1" cursor="move" transform="matrix(1,0,0,1,689,716.1152954101562)" style="cursor: default;"><rect joint-selector="rect" id="v-3952" fill="#ffffff" rx="3" ry="3" x="-2.220446049250313e-16" y="0" width="0" height="0"  display="none"></rect><text joint-selector="text" id="v-3951" fill="#000000" font-size="14" text-anchor="middle" text-vertical-anchor="middle" pointer-events="none"></text></g></g></g><!--z-index:36--><g   id="j_342"  style="opacity: 1;"><path fill="none" cursor="pointer" stroke="transparent" stroke-linecap="round" joint-selector="wrapper" id="v-3969" stroke-width="10" stroke-linejoin="round" d="M 599 1542 L 689 1542 C 695.6666666666666 1542 702.3333333333333 1542 709 1542 L 964 1542 C 970.6666666666665 1542 973.9999999999999 1538.6666666666665 974 1532 L 974 1018"></path><path fill="none" pointer-events="none" joint-selector="line" id="v-3968" stroke="#707070" stroke-width="2" stroke-linejoin="round" stroke-dasharray="8 8" d="M 599 1542 L 689 1542 C 695.6666666666666 1542 702.3333333333333 1542 709 1542 L 964 1542 C 970.6666666666665 1542 973.9999999999999 1538.6666666666665 974 1532 L 974 1018" marker-end="url(#v-2-480243263)"></path><g id="v-3961" ><g id="v-3962"  label-idx="0" cursor="move" transform="matrix(1,0,0,1,974,1465.6153564453125)" style="cursor: default;"><rect joint-selector="rect" id="v-3965" fill="#111111" rx="3" ry="3" x="-2.220446049250313e-16" y="0" width="0" height="0" pointer-events="none"  style="display: block;"></rect><text joint-selector="text" id="v-3964" font-size="12px" xml:space="preserve" display="none" fill="#707070" text-anchor="middle" pointer-events="none" font-family="Tahoma, Verdana, Helvetica, Arial" font-weight="normal"  style="display: block;"><tspan style="fill-opacity: 0; stroke-opacity: 0;"  dy="0.3em">-</tspan></text></g><g id="v-3963"  label-idx="1" cursor="move" transform="matrix(1,0,0,1,964,1465.6153564453125)" style="cursor: default;"><rect joint-selector="rect" id="v-3967" fill="#ffffff" rx="3" ry="3" x="-2.220446049250313e-16" y="0" width="0" height="0"  display="none"></rect><text joint-selector="text" id="v-3966" fill="#000000" font-size="14" text-anchor="middle" text-vertical-anchor="middle" pointer-events="none"></text></g></g></g><!--z-index:37--><g   id="j_343"  style="opacity: 1;"><path fill="none" cursor="pointer" stroke="transparent" stroke-linecap="round" joint-selector="wrapper" id="v-3984" stroke-width="10" stroke-linejoin="round" d="M 599 1068 L 639 1068 C 645.6666666666666 1068 649 1071.3333333333333 649 1078 L 649 1232 C 649 1238.6666666666665 652.3333333333333 1242 659 1242 L 689 1242 C 695.6666666666666 1242 699 1245.3333333333333 699 1252 L 699 1382 C 699 1388.6666666666665 702.3333333333333 1392 709 1392 L 749 1392"></path><path fill="none" pointer-events="none" joint-selector="line" id="v-3983" stroke="#707070" stroke-width="2" stroke-linejoin="round" stroke-dasharray="8 8" d="M 599 1068 L 639 1068 C 645.6666666666666 1068 649 1071.3333333333333 649 1078 L 649 1232 C 649 1238.6666666666665 652.3333333333333 1242 659 1242 L 689 1242 C 695.6666666666666 1242 699 1245.3333333333333 699 1252 L 699 1382 C 699 1388.6666666666665 702.3333333333333 1392 709 1392 L 749 1392" marker-end="url(#v-2-480243263)"></path><g id="v-3976" ><g id="v-3977"  label-idx="0" cursor="move" transform="matrix(1,0,0,1,662,1242)" style="cursor: default;"><rect joint-selector="rect" id="v-3980" fill="#111111" rx="3" ry="3" x="-2.220446049250313e-16" y="0" width="0" height="0" pointer-events="none"  style="display: block;"></rect><text joint-selector="text" id="v-3979" font-size="12px" xml:space="preserve" display="none" fill="#707070" text-anchor="middle" pointer-events="none" font-family="Tahoma, Verdana, Helvetica, Arial" font-weight="normal"  style="display: block;"><tspan style="fill-opacity: 0; stroke-opacity: 0;"  dy="0.3em">-</tspan></text></g><g id="v-3978"  label-idx="1" cursor="move" transform="matrix(1,0,0,1,652,1242)" style="cursor: default;"><rect joint-selector="rect" id="v-3982" fill="#ffffff" rx="3" ry="3" x="-2.220446049250313e-16" y="0" width="0" height="0"  display="none"></rect><text joint-selector="text" id="v-3981" fill="#000000" font-size="14" text-anchor="middle" text-vertical-anchor="middle" pointer-events="none"></text></g></g></g><!--z-index:38--><g   id="j_344"  style="opacity: 1;"><path fill="none" cursor="pointer" stroke="transparent" stroke-linecap="round" joint-selector="wrapper" id="v-3999" stroke-width="10" stroke-linejoin="round" d="M 1199 1392 L 1239 1392 C 1245.6666666666665 1392 1249 1388.6666666666665 1249 1382 L 1249 1252 C 1249 1245.3333333333333 1249 1238.6666666666665 1249 1232 L 1249 302 C 1249 295.3333333333333 1252.3333333333333 292 1259 292 L 1299 292" style="stroke-width: 10px;"></path><path fill="none" pointer-events="none" joint-selector="line" id="v-3998" stroke="#707070" stroke-width="2" stroke-linejoin="round" stroke-dasharray="8 8" d="M 1199 1392 L 1239 1392 C 1245.6666666666665 1392 1249 1388.6666666666665 1249 1382 L 1249 1252 C 1249 1245.3333333333333 1249 1238.6666666666665 1249 1232 L 1249 302 C 1249 295.3333333333333 1252.3333333333333 292 1259 292 L 1299 292" marker-end="url(#v-2-480243263)"></path><g id="v-3991" ><g id="v-3992"  label-idx="0" cursor="move" transform="matrix(1,0,0,1,1249,842)" style="cursor: default;"><rect joint-selector="rect" id="v-3995" fill="#111111" rx="3" ry="3" x="-2.220446049250313e-16" y="0" width="0" height="0" pointer-events="none"  style="display: block;"></rect><text joint-selector="text" id="v-3994" font-size="12px" xml:space="preserve" display="none" fill="#707070" text-anchor="middle" pointer-events="none" font-family="Tahoma, Verdana, Helvetica, Arial" font-weight="normal"  style="display: block;"><tspan style="fill-opacity: 0; stroke-opacity: 0;"  dy="0.3em">-</tspan></text></g><g id="v-3993"  label-idx="1" cursor="move" transform="matrix(1,0,0,1,1239,842)" style="cursor: default;"><rect joint-selector="rect" id="v-3997" fill="#ffffff" rx="3" ry="3" x="-2.220446049250313e-16" y="0" width="0" height="0"  display="none"></rect><text joint-selector="text" id="v-3996" fill="#000000" font-size="14" text-anchor="middle" text-vertical-anchor="middle" pointer-events="none"></text></g></g></g><!--z-index:39--><g   id="j_345"  style="opacity: 1;"><path fill="none" cursor="pointer" stroke="transparent" stroke-linecap="round" joint-selector="wrapper" id="v-4014" stroke-width="10" stroke-linejoin="round" d="M 1199 868 L 1239 868 C 1245.6666666666665 868 1249 868 1249 868 L 1249 868 C 1249 868.1666666666665 1249 871.4999999999999 1249 878 L 1249 1058 C 1249 1064.6666666666665 1252.3333333333333 1068 1259 1068 L 1299 1068" style="stroke-width: 10px;"></path><path fill="none" pointer-events="none" joint-selector="line" id="v-4013" stroke="#707070" stroke-width="2" stroke-linejoin="round" stroke-dasharray="8 8" d="M 1199 868 L 1239 868 C 1245.6666666666665 868 1249 868 1249 868 L 1249 868 C 1249 868.1666666666665 1249 871.4999999999999 1249 878 L 1249 1058 C 1249 1064.6666666666665 1252.3333333333333 1068 1259 1068 L 1299 1068" marker-end="url(#v-2-480243263)"></path><g id="v-4006" ><g id="v-4007"  label-idx="0" cursor="move" transform="matrix(1,0,0,1,1249,966.1152954101562)" style="cursor: default;"><rect joint-selector="rect" id="v-4010" fill="#111111" rx="3" ry="3" x="-2.220446049250313e-16" y="0" width="0" height="0" pointer-events="none"  style="display: block;"></rect><text joint-selector="text" id="v-4009" font-size="12px" xml:space="preserve" display="none" fill="#707070" text-anchor="middle" pointer-events="none" font-family="Tahoma, Verdana, Helvetica, Arial" font-weight="normal"  style="display: block;"><tspan style="fill-opacity: 0; stroke-opacity: 0;"  dy="0.3em">-</tspan></text></g><g id="v-4008"  label-idx="1" cursor="move" transform="matrix(1,0,0,1,1239,966.1152954101562)" style="cursor: default;"><rect joint-selector="rect" id="v-4012" fill="#ffffff" rx="3" ry="3" x="-2.220446049250313e-16" y="0" width="0" height="0"  display="none"></rect><text joint-selector="text" id="v-4011" fill="#000000" font-size="14" text-anchor="middle" text-vertical-anchor="middle" pointer-events="none"></text></g></g></g><!--z-index:40--><g   id="j_346"  style="opacity: 1;"><path fill="none" cursor="pointer" stroke="transparent" stroke-linecap="round" joint-selector="wrapper" id="v-4029" stroke-width="10" stroke-linejoin="round" d="M 1199 1392 L 1239 1392 C 1245.6666666666665 1392 1249 1395.3333333333333 1249 1402 L 1249 1457 C 1249 1463.6666666666665 1252.3333333333333 1467 1259 1467 L 1514 1467 C 1520.6666666666665 1467 1524 1463.6666666666665 1524 1457 L 1524 1218" style="stroke-width: 10px;"></path><path fill="none" pointer-events="none" joint-selector="line" id="v-4028" stroke="#707070" stroke-width="2" stroke-linejoin="round" stroke-dasharray="8 8" d="M 1199 1392 L 1239 1392 C 1245.6666666666665 1392 1249 1395.3333333333333 1249 1402 L 1249 1457 C 1249 1463.6666666666665 1252.3333333333333 1467 1259 1467 L 1514 1467 C 1520.6666666666665 1467 1524 1463.6666666666665 1524 1457 L 1524 1218" marker-end="url(#v-2-480243263)"></path><g id="v-4021" ><g id="v-4022"  label-idx="0" cursor="move" transform="matrix(1,0,0,1,1450.3846435546875,1467)" style="cursor: default;"><rect joint-selector="rect" id="v-4025" fill="#111111" rx="3" ry="3" x="-2.220446049250313e-16" y="0" width="0" height="0" pointer-events="none"  style="display: block;"></rect><text joint-selector="text" id="v-4024" font-size="12px" xml:space="preserve" display="none" fill="#707070" text-anchor="middle" pointer-events="none" font-family="Tahoma, Verdana, Helvetica, Arial" font-weight="normal"  style="display: block;"><tspan style="fill-opacity: 0; stroke-opacity: 0;"  dy="0.3em">-</tspan></text></g><g id="v-4023"  label-idx="1" cursor="move" transform="matrix(1,0,0,1,1440.3846435546875,1467)" style="cursor: default;"><rect joint-selector="rect" id="v-4027" fill="#ffffff" rx="3" ry="3" x="-2.220446049250313e-16" y="0" width="0" height="0"  display="none"></rect><text joint-selector="text" id="v-4026" fill="#000000" font-size="14" text-anchor="middle" text-vertical-anchor="middle" pointer-events="none"></text></g></g></g><!--z-index:41--><g   id="j_347"  style="opacity: 1;"><path fill="none" cursor="pointer" stroke="transparent" stroke-linecap="round" joint-selector="wrapper" id="v-4044" stroke-width="10" stroke-linejoin="round" d="M 1524 918 L 1524 627 C 1524 620.3333333333333 1527.3333333333333 617 1534 617 L 1789 617 C 1795.6666666666665 617 1802.3333333333333 617 1809 617 L 2064 617 C 2070.6666666666665 617 2074 613.6666666666666 2074 607 L 2074 442" style="stroke-width: 10px;"></path><path fill="none" pointer-events="none" joint-selector="line" id="v-4043" stroke="#707070" stroke-width="2" stroke-linejoin="round" stroke-dasharray="8 8" d="M 1524 918 L 1524 627 C 1524 620.3333333333333 1527.3333333333333 617 1534 617 L 1789 617 C 1795.6666666666665 617 1802.3333333333333 617 1809 617 L 2064 617 C 2070.6666666666665 617 2074 613.6666666666666 2074 607 L 2074 442" marker-end="url(#v-2-480243263)"></path><g id="v-4036" ><g id="v-4037"  label-idx="0" cursor="move" transform="matrix(1,0,0,1,1736,617)" style="cursor: default;"><rect joint-selector="rect" id="v-4040" fill="#111111" rx="3" ry="3" x="-2.220446049250313e-16" y="0" width="0" height="0" pointer-events="none"  style="display: block;"></rect><text joint-selector="text" id="v-4039" font-size="12px" xml:space="preserve" display="none" fill="#707070" text-anchor="middle" pointer-events="none" font-family="Tahoma, Verdana, Helvetica, Arial" font-weight="normal"  style="display: block;"><tspan style="fill-opacity: 0; stroke-opacity: 0;"  dy="0.3em">-</tspan></text></g><g id="v-4038"  label-idx="1" cursor="move" transform="matrix(1,0,0,1,1726,617)" style="cursor: default;"><rect joint-selector="rect" id="v-4042" fill="#ffffff" rx="3" ry="3" x="-2.220446049250313e-16" y="0" width="0" height="0"  display="none"></rect><text joint-selector="text" id="v-4041" fill="#000000" font-size="14" text-anchor="middle" text-vertical-anchor="middle" pointer-events="none"></text></g></g></g><!--z-index:42--><g   id="j_348"  style="opacity: 1;"><path fill="none" cursor="pointer" stroke="transparent" stroke-linecap="round" joint-selector="wrapper" id="v-4059" stroke-width="10" stroke-linejoin="round" d="M 1524 1218 L 1524 1382 C 1524 1388.6666666666665 1527.3333333333333 1392 1534 1392 L 1789 1392 C 1795.6666666666665 1392 1802.3333333333333 1392 1809 1392 L 1849 1392" style="stroke-width: 10px;"></path><path fill="none" pointer-events="none" joint-selector="line" id="v-4058" stroke="#707070" stroke-width="2" stroke-linejoin="round" stroke-dasharray="8 8" d="M 1524 1218 L 1524 1382 C 1524 1388.6666666666665 1527.3333333333333 1392 1534 1392 L 1789 1392 C 1795.6666666666665 1392 1802.3333333333333 1392 1809 1392 L 1849 1392" marker-end="url(#v-2-480243263)"></path><g id="v-4051" ><g id="v-4052"  label-idx="0" cursor="move" transform="matrix(1,0,0,1,1601.3846435546875,1392)" style="cursor: default;"><rect joint-selector="rect" id="v-4055" fill="#111111" rx="3" ry="3" x="-2.220446049250313e-16" y="0" width="0" height="0" pointer-events="none"  style="display: block;"></rect><text joint-selector="text" id="v-4054" font-size="12px" xml:space="preserve" display="none" fill="#707070" text-anchor="middle" pointer-events="none" font-family="Tahoma, Verdana, Helvetica, Arial" font-weight="normal"  style="display: block;"><tspan style="fill-opacity: 0; stroke-opacity: 0;"  dy="0.3em">-</tspan></text></g><g id="v-4053"  label-idx="1" cursor="move" transform="matrix(1,0,0,1,1591.3846435546875,1392)" style="cursor: default;"><rect joint-selector="rect" id="v-4057" fill="#ffffff" rx="3" ry="3" x="-2.220446049250313e-16" y="0" width="0" height="0"  display="none"></rect><text joint-selector="text" id="v-4056" fill="#000000" font-size="14" text-anchor="middle" text-vertical-anchor="middle" pointer-events="none"></text></g></g></g><!--z-index:43--><!--z-index:44--><!--z-index:45--><!--z-index:46--><!--z-index:47--><!--z-index:48--><!--z-index:49--><!--z-index:50--><!--z-index:51--><!--z-index:52--><!--z-index:53--><!--z-index:54--><!--z-index:55--><!--z-index:56--><!--z-index:57--><!--z-index:58--><!--z-index:59--><!--z-index:60--><!--z-index:61--><!--z-index:62--><!--z-index:63--><!--z-index:64--><!--z-index:65--><!--z-index:66--><!--z-index:67--><!--z-index:68--><!--z-index:69--><!--z-index:70--><!--z-index:71--><!--z-index:72--><!--z-index:73--><!--z-index:74--><!--z-index:75--><!--z-index:76--><!--z-index:77--><!--z-index:78--><!--z-index:79--><!--z-index:80--><!--z-index:81--><!--z-index:82--><!--z-index:83--><!--z-index:84--><!--z-index:85--><!--z-index:86--><!--z-index:87--><!--z-index:88--><!--z-index:89--><!--z-index:90--><!--z-index:91--><!--z-index:92--><!--z-index:93--><!--z-index:94--><!--z-index:95--><!--z-index:96--><!--z-index:97--><!--z-index:98--><!--z-index:99--><!--z-index:100--><!--z-index:101--><!--z-index:102--><!--z-index:103--><!--z-index:104--><!--z-index:105--><!--z-index:106--><!--z-index:107--></g><g  style="user-select: none;"></g><g ></g><g  display="none"></g></g></svg>