<svg xmlns="http://www.w3.org/2000/svg" xmlns:xlink="http://www.w3.org/1999/xlink" version="1.1" style="background: #111111" viewBox="0 0 1900 1700"><style id="v-3" type="text/css">        .joint-element .scalable * {            vector-effect: non-scaling-stroke;        }    </style><defs joint-selector="defs"><marker id="v-2-480243263" orient="auto" overflow="visible" markerUnits="userSpaceOnUse"><path id="v-95" stroke="#707070" fill="#707070" transform="rotate(180)" d="M 20 -10 0 0 20 10 Z"></path></marker></defs><g  joint-selector="layers" transform="matrix(1,0,0,1,0,0)"><g style="pointer-events: none;" ></g><g ></g><g  style="user-select: none;"><!--z-index:0--><!--z-index:1--><!--z-index:2--><!--z-index:3--><!--z-index:4--><!--z-index:5--><!--z-index:6--><!--z-index:7--><!--z-index:8--><!--z-index:9--><!--z-index:10--><!--z-index:11--><!--z-index:12--><!--z-index:13--><g   id="j_315"  transform="translate(20,1656)"><g id="v-3657"><text  id="v-3658" font-size="24px" xml:space="preserve" y="0.8em" font-weight="normal" text-anchor="start" fill="#cccccc" pointer-events="none" display="block" font-family="Tahoma, Verdana, Helvetica, Arial"><tspan  dy="0" display="block">segunda-feira, 22 de junho de 2026 às 07:05 Horário Padrão do Amazonas</tspan></text></g></g><!--z-index:14--><g   id="j_314"  transform="translate(20,1622)"><g id="v-3655"><text  id="v-3656" font-size="24px" xml:space="preserve" y="0.8em" font-weight="normal" text-anchor="start" fill="#cccccc" pointer-events="none" display="block" font-family="Tahoma, Verdana, Helvetica, Arial"><tspan  dy="0" display="block">Diagrama de Contexto do BichoHub (Nível 1)</tspan></text></g></g><!--z-index:15--><g   id="j_313"  transform="translate(20,1576)"><g id="v-3653"><text  id="v-3654" font-size="36px" xml:space="preserve" y="0.8em" font-weight="normal" text-anchor="start" fill="#cccccc" pointer-events="none" display="block" font-family="Tahoma, Verdana, Helvetica, Arial"><tspan  dy="0" display="block">System Context View: BichoHub</tspan></text></g></g><!--z-index:16--><g   id="j_316"  transform="translate(200,143)" style=""><g  id="v-3662" style="opacity: 1;"><rect  x="0" y="160" width="400" height="240" rx="70" id="v-3664" stroke-width="2" pointer-events="visiblePainted" fill="#08427b" stroke="#073b6f" stroke-dasharray="" style="fill: rgb(8, 66, 123); stroke: rgb(7, 59, 111);"></rect><circle  cx="200" cy="88.88888888888889" r="88.88888888888889" id="v-3663" stroke-width="2" pointer-events="visiblePainted" fill="#08427b" stroke="#073b6f" stroke-dasharray="" style="fill: rgb(8, 66, 123); stroke: rgb(7, 59, 111);"></circle><line  x1="80" y1="266.6666666666667" x2="80" y2="400" id="v-3670" stroke="#073b6f" stroke-width="1" stroke-dasharray="" style="stroke: rgb(7, 59, 111);"></line><line  x1="320" y1="266.6666666666667" x2="320" y2="400" id="v-3671" stroke="#073b6f" stroke-width="1" stroke-dasharray="" style="stroke: rgb(7, 59, 111);"></line><text  id="v-3665" font-size="30.799999999999997px" xml:space="preserve" y="234.4" font-weight="bold" text-anchor="middle" pointer-events="visible" font-family="Tahoma, Verdana, Helvetica, Arial" fill="#ffffff" dominant-baseline="hanging" transform="matrix(1,0,0,1,200,0)" style="fill: rgb(255, 255, 255);"><tspan  dy="0">Cidadão</tspan></text><text  id="v-3666" font-size="15.399999999999999px" xml:space="preserve" y="273.2" text-anchor="middle" font-family="Tahoma, Verdana, Helvetica, Arial" fill="#ffffff" dominant-baseline="hanging" transform="matrix(1,0,0,1,200,0)" style="display: block; fill: rgb(255, 255, 255);"><tspan  dy="0">[Person]</tspan></text><text  id="v-3667" font-size="22px" xml:space="preserve" y="303.6" text-anchor="middle" font-family="Tahoma, Verdana, Helvetica, Arial" fill="#ffffff" dominant-baseline="hanging" transform="matrix(1,0,0,1,200,0)" style="display: block; fill: rgb(255, 255, 255);"><tspan  dy="0">Solicita resgate/coleta de animal</tspan></text><g  id="v-3668" font-weight="normal" text-anchor="middle" color="#ffffff" transform="matrix(1,0,0,1,197.5,368)" style="fill: rgb(255, 255, 255);" display="none"><g ></g><g ></g><g ></g><g ></g></g><image  id="v-3669"></image></g></g><!--z-index:17--><g   id="j_317"  transform="translate(200,593)" style=""><g  id="v-3675" style="opacity: 1;"><rect  x="0" y="160" width="400" height="240" rx="70" id="v-3677" stroke-width="2" pointer-events="visiblePainted" fill="#08427b" stroke="#073b6f" stroke-dasharray="" style="fill: rgb(8, 66, 123); stroke: rgb(7, 59, 111);"></rect><circle  cx="200" cy="88.88888888888889" r="88.88888888888889" id="v-3676" stroke-width="2" pointer-events="visiblePainted" fill="#08427b" stroke="#073b6f" stroke-dasharray="" style="fill: rgb(8, 66, 123); stroke: rgb(7, 59, 111);"></circle><line  x1="80" y1="266.6666666666667" x2="80" y2="400" id="v-3683" stroke="#073b6f" stroke-width="1" stroke-dasharray="" style="stroke: rgb(7, 59, 111);"></line><line  x1="320" y1="266.6666666666667" x2="320" y2="400" id="v-3684" stroke="#073b6f" stroke-width="1" stroke-dasharray="" style="stroke: rgb(7, 59, 111);"></line><text  id="v-3678" font-size="30.799999999999997px" xml:space="preserve" y="234.4" font-weight="bold" text-anchor="middle" pointer-events="visible" font-family="Tahoma, Verdana, Helvetica, Arial" fill="#ffffff" dominant-baseline="hanging" transform="matrix(1,0,0,1,200,0)" style="fill: rgb(255, 255, 255);"><tspan  dy="0">Coletor</tspan></text><text  id="v-3679" font-size="15.399999999999999px" xml:space="preserve" y="273.2" text-anchor="middle" font-family="Tahoma, Verdana, Helvetica, Arial" fill="#ffffff" dominant-baseline="hanging" transform="matrix(1,0,0,1,200,0)" style="display: block; fill: rgb(255, 255, 255);"><tspan  dy="0">[Person]</tspan></text><text  id="v-3680" font-size="22px" xml:space="preserve" y="303.6" text-anchor="middle" font-family="Tahoma, Verdana, Helvetica, Arial" fill="#ffffff" dominant-baseline="hanging" transform="matrix(1,0,0,1,200,0)" style="display: block; fill: rgb(255, 255, 255);"><tspan  dy="0">Atende ocorrências em campo</tspan></text><g  id="v-3681" font-weight="normal" text-anchor="middle" color="#ffffff" transform="matrix(1,0,0,1,197.5,368)" style="fill: rgb(255, 255, 255);" display="none"><g ></g><g ></g><g ></g><g ></g></g><image  id="v-3682"></image></g></g><!--z-index:18--><g   id="j_318"  transform="translate(200,1043)" style=""><g  id="v-3688" style="opacity: 1;"><rect  x="0" y="160" width="400" height="240" rx="70" id="v-3690" stroke-width="2" pointer-events="visiblePainted" fill="#08427b" stroke="#073b6f" stroke-dasharray="" style="fill: rgb(8, 66, 123); stroke: rgb(7, 59, 111);"></rect><circle  cx="200" cy="88.88888888888889" r="88.88888888888889" id="v-3689" stroke-width="2" pointer-events="visiblePainted" fill="#08427b" stroke="#073b6f" stroke-dasharray="" style="fill: rgb(8, 66, 123); stroke: rgb(7, 59, 111);"></circle><line  x1="80" y1="266.6666666666667" x2="80" y2="400" id="v-3696" stroke="#073b6f" stroke-width="1" stroke-dasharray="" style="stroke: rgb(7, 59, 111);"></line><line  x1="320" y1="266.6666666666667" x2="320" y2="400" id="v-3697" stroke="#073b6f" stroke-width="1" stroke-dasharray="" style="stroke: rgb(7, 59, 111);"></line><text  id="v-3691" font-size="30.799999999999997px" xml:space="preserve" y="234.4" font-weight="bold" text-anchor="middle" pointer-events="visible" font-family="Tahoma, Verdana, Helvetica, Arial" fill="#ffffff" dominant-baseline="hanging" transform="matrix(1,0,0,1,200,0)" style="fill: rgb(255, 255, 255);"><tspan  dy="0">Administrador</tspan></text><text  id="v-3692" font-size="15.399999999999999px" xml:space="preserve" y="273.2" text-anchor="middle" font-family="Tahoma, Verdana, Helvetica, Arial" fill="#ffffff" dominant-baseline="hanging" transform="matrix(1,0,0,1,200,0)" style="display: block; fill: rgb(255, 255, 255);"><tspan  dy="0">[Person]</tspan></text><text  id="v-3693" font-size="22px" xml:space="preserve" y="303.6" text-anchor="middle" font-family="Tahoma, Verdana, Helvetica, Arial" fill="#ffffff" dominant-baseline="hanging" transform="matrix(1,0,0,1,200,0)" style="display: block; fill: rgb(255, 255, 255);"><tspan  dy="0">Gerencia usuários e sistema</tspan></text><g  id="v-3694" font-weight="normal" text-anchor="middle" color="#ffffff" transform="matrix(1,0,0,1,197.5,368)" style="fill: rgb(255, 255, 255);" display="none"><g ></g><g ></g><g ></g><g ></g></g><image  id="v-3695"></image></g></g><!--z-index:19--><g   id="j_319"  transform="translate(1250,818)" style=""><g  id="v-3701" style="opacity: 1;"><rect  id="v-3702" rx="20" ry="20" stroke-width="2" pointer-events="visiblePainted" fill="#999999" stroke="#8a8a8a" stroke-dasharray="" width="450" height="300" style="fill: rgb(153, 153, 153); stroke: rgb(138, 138, 138);"></rect><text  id="v-3703" font-size="25.2px" xml:space="preserve" y="99.80000000000001" font-weight="bold" text-anchor="middle" pointer-events="visible" font-family="Tahoma, Verdana, Helvetica, Arial" fill="#ffffff" dominant-baseline="hanging" transform="matrix(1,0,0,1,225,0)" style="fill: rgb(255, 255, 255);"><tspan  dy="0">PostgreSQL + PostGIS</tspan></text><text  id="v-3704" font-size="12.6px" xml:space="preserve" y="133" text-anchor="middle" font-family="Tahoma, Verdana, Helvetica, Arial" fill="#ffffff" dominant-baseline="hanging" transform="matrix(1,0,0,1,225,0)" style="display: block; fill: rgb(255, 255, 255);"><tspan  dy="0">[Software System]</tspan></text><text  id="v-3705" font-size="18px" xml:space="preserve" y="160.60000000000002" text-anchor="middle" font-family="Tahoma, Verdana, Helvetica, Arial" fill="#ffffff" dominant-baseline="hanging" transform="matrix(1,0,0,1,225,0)" style="display: block; fill: rgb(255, 255, 255);"><tspan  dy="0">Banco de dados espacial e transacional</tspan><tspan dy="1.2em" x="0" >(PostgreSQL 15 + PostGIS 3.4)</tspan></text><g  id="v-3706" color="#ffffff" transform="matrix(1,0,0,1,222.5,268)" style="fill: rgb(255, 255, 255);" display="none"><g ></g><g ></g><g ></g><g ></g></g><image  id="v-3707"></image></g></g><!--z-index:20--><g   id="j_320"  transform="translate(1250,468)" style=""><g  id="v-3711" style="opacity: 1;"><rect  id="v-3712" rx="20" ry="20" stroke-width="2" pointer-events="visiblePainted" fill="#999999" stroke="#8a8a8a" stroke-dasharray="" width="450" height="300" style="fill: rgb(153, 153, 153); stroke: rgb(138, 138, 138);"></rect><text  id="v-3713" font-size="25.2px" xml:space="preserve" y="99.80000000000001" font-weight="bold" text-anchor="middle" pointer-events="visible" font-family="Tahoma, Verdana, Helvetica, Arial" fill="#ffffff" dominant-baseline="hanging" transform="matrix(1,0,0,1,225,0)" style="fill: rgb(255, 255, 255);"><tspan  dy="0">WhatsApp Web</tspan></text><text  id="v-3714" font-size="12.6px" xml:space="preserve" y="133" text-anchor="middle" font-family="Tahoma, Verdana, Helvetica, Arial" fill="#ffffff" dominant-baseline="hanging" transform="matrix(1,0,0,1,225,0)" style="display: block; fill: rgb(255, 255, 255);"><tspan  dy="0">[Software System]</tspan></text><text  id="v-3715" font-size="18px" xml:space="preserve" y="160.60000000000002" text-anchor="middle" font-family="Tahoma, Verdana, Helvetica, Arial" fill="#ffffff" dominant-baseline="hanging" transform="matrix(1,0,0,1,225,0)" style="display: block; fill: rgb(255, 255, 255);"><tspan  dy="0">Infraestrutura do WhatsApp Web (navegador</tspan><tspan dy="1.2em" x="0" >headless)</tspan></text><g  id="v-3716" color="#ffffff" transform="matrix(1,0,0,1,222.5,268)" style="fill: rgb(255, 255, 255);" display="none"><g ></g><g ></g><g ></g><g ></g></g><image  id="v-3717"></image></g></g><!--z-index:21--><g   id="j_321"  transform="translate(700,643)" style=""><g  id="v-3721" style="opacity: 1;"><rect  id="v-3722" rx="1" ry="1" stroke-width="2" pointer-events="visiblePainted" fill="#1168bd" stroke="#0f5eaa" stroke-dasharray="" width="450" height="300" style="fill: rgb(17, 104, 189); stroke: rgb(15, 94, 170);"></rect><text  id="v-3723" font-size="30.799999999999997px" xml:space="preserve" y="91.2" font-weight="bold" text-anchor="middle" pointer-events="visible" font-family="Tahoma, Verdana, Helvetica, Arial" fill="#ffffff" dominant-baseline="hanging" transform="matrix(1,0,0,1,225,0)" style="fill: rgb(255, 255, 255);"><tspan  dy="0">BichoHub</tspan></text><text  id="v-3724" font-size="15.399999999999999px" xml:space="preserve" y="130" text-anchor="middle" font-family="Tahoma, Verdana, Helvetica, Arial" fill="#ffffff" dominant-baseline="hanging" transform="matrix(1,0,0,1,225,0)" style="display: block; fill: rgb(255, 255, 255);"><tspan  dy="0">[Software System]</tspan></text><text  id="v-3725" font-size="22px" xml:space="preserve" y="160.39999999999998" text-anchor="middle" font-family="Tahoma, Verdana, Helvetica, Arial" fill="#ffffff" dominant-baseline="hanging" transform="matrix(1,0,0,1,225,0)" style="display: block; fill: rgb(255, 255, 255);"><tspan  dy="0">Sistema para catalogação, resgate,</tspan><tspan dy="1.2em" x="0" >coleta e condução de animais</tspan></text><g  id="v-3726" color="#ffffff" transform="matrix(1,0,0,1,210,268)" style="fill: rgb(255, 255, 255);" display="none"><g  transform="translate(5 0)"><svg xmlns="http://www.w3.org/2000/svg" width="20" height="20" fill="currentColor" viewBox="0 0 16 16"><path fill-rule="evenodd" d="M6.5 12a5.5 5.5 0 1 0 0-11 5.5 5.5 0 0 0 0 11zM13 6.5a6.5 6.5 0 1 1-13 0 6.5 6.5 0 0 1 13 0z"></path><path d="M10.344 11.742c.03.04.062.078.098.115l3.85 3.85a1 1 0 0 0 1.415-1.414l-3.85-3.85a1.007 1.007 0 0 0-.115-.1 6.538 6.538 0 0 1-1.398 1.4z"></path><path fill-rule="evenodd" d="M6.5 3a.5.5 0 0 1 .5.5V6h2.5a.5.5 0 0 1 0 1H7v2.5a.5.5 0 0 1-1 0V7H3.5a.5.5 0 0 1 0-1H6V3.5a.5.5 0 0 1 .5-.5z"></path></svg></g><g ></g><g ></g><g ></g></g><image  id="v-3727"></image></g></g><!--z-index:22--><g   id="j_322"  style="opacity: 1;"><path fill="none" cursor="pointer" stroke="transparent" stroke-linecap="round" joint-selector="wrapper" id="v-3742" stroke-width="10" stroke-linejoin="round" d="M 600 343 L 640 343 C 646.6666666666666 343 653.3333333333333 343 660 343 L 915 343 C 921.6666666666666 343 925 346.3333333333333 925 353 L 925 643" style="stroke-width: 10px;"></path><path fill="none" pointer-events="none" joint-selector="line" id="v-3741" stroke="#707070" stroke-width="2" stroke-linejoin="round" stroke-dasharray="8 8" d="M 600 343 L 640 343 C 646.6666666666666 343 653.3333333333333 343 660 343 L 915 343 C 921.6666666666666 343 925 346.3333333333333 925 353 L 925 643" marker-end="url(#v-2-480243263)"></path><g id="v-3734" ><g id="v-3735"  label-idx="0" cursor="move" transform="matrix(1,0,0,1,910.6152954101562,343)" style="cursor: default;"><rect joint-selector="rect" id="v-3738" fill="#111111" rx="3" ry="3" x="0" y="0" width="0" height="0" pointer-events="none"  style="display: block;"></rect><text joint-selector="text" id="v-3737" font-size="12px" xml:space="preserve" display="none" fill="#707070" text-anchor="middle" pointer-events="none" font-family="Tahoma, Verdana, Helvetica, Arial" font-weight="normal"  style="display: block;"><tspan style="fill-opacity: 0; stroke-opacity: 0;"  dy="0.3em">-</tspan></text></g><g id="v-3736"  label-idx="1" cursor="move" transform="matrix(1,0,0,1,900.6152954101562,343)" style="cursor: default;"><rect joint-selector="rect" id="v-3740" fill="#ffffff" rx="3" ry="3" x="0" y="0" width="0" height="0"  display="none"></rect><text joint-selector="text" id="v-3739" fill="#000000" font-size="14" text-anchor="middle" text-vertical-anchor="middle" pointer-events="none"></text></g></g></g><!--z-index:23--><g   id="j_323"  style="opacity: 1;"><path fill="none" cursor="pointer" stroke="transparent" stroke-linecap="round" joint-selector="wrapper" id="v-3757" stroke-width="10" stroke-linejoin="round" d="M 600 793 L 700 793" style="stroke-width: 10px;"></path><path fill="none" pointer-events="none" joint-selector="line" id="v-3756" stroke="#707070" stroke-width="2" stroke-linejoin="round" stroke-dasharray="8 8" d="M 600 793 L 700 793" marker-end="url(#v-2-480243263)"></path><g id="v-3749" ><g id="v-3750"  label-idx="0" cursor="move" transform="matrix(1,0,0,1,650,793)" style="cursor: default;"><rect joint-selector="rect" id="v-3753" fill="#111111" rx="3" ry="3" x="0" y="0" width="0" height="0" pointer-events="none"  style="display: block;"></rect><text joint-selector="text" id="v-3752" font-size="12px" xml:space="preserve" display="none" fill="#707070" text-anchor="middle" pointer-events="none" font-family="Tahoma, Verdana, Helvetica, Arial" font-weight="normal"  style="display: block;"><tspan style="fill-opacity: 0; stroke-opacity: 0;"  dy="0.3em">-</tspan></text></g><g id="v-3751"  label-idx="1" cursor="move" transform="matrix(1,0,0,1,640,793)" style="cursor: default;"><rect joint-selector="rect" id="v-3755" fill="#ffffff" rx="3" ry="3" x="0" y="0" width="0" height="0"  display="none"></rect><text joint-selector="text" id="v-3754" fill="#000000" font-size="14" text-anchor="middle" text-vertical-anchor="middle" pointer-events="none"></text></g></g></g><!--z-index:24--><g   id="j_324"  style="opacity: 1;"><path fill="none" cursor="pointer" stroke="transparent" stroke-linecap="round" joint-selector="wrapper" id="v-3772" stroke-width="10" stroke-linejoin="round" d="M 600 1243 L 640 1243 C 646.6666666666666 1243 653.3333333333333 1243 660 1243 L 915 1243 C 921.6666666666666 1243 925 1239.6666666666665 925 1233 L 925 943" style="stroke-width: 10px;"></path><path fill="none" pointer-events="none" joint-selector="line" id="v-3771" stroke="#707070" stroke-width="2" stroke-linejoin="round" stroke-dasharray="8 8" d="M 600 1243 L 640 1243 C 646.6666666666666 1243 653.3333333333333 1243 660 1243 L 915 1243 C 921.6666666666666 1243 925 1239.6666666666665 925 1233 L 925 943" marker-end="url(#v-2-480243263)"></path><g id="v-3764" ><g id="v-3765"  label-idx="0" cursor="move" transform="matrix(1,0,0,1,910.6152954101562,1243)" style="cursor: default;"><rect joint-selector="rect" id="v-3768" fill="#111111" rx="3" ry="3" x="0" y="0" width="0" height="0" pointer-events="none"  style="display: block;"></rect><text joint-selector="text" id="v-3767" font-size="12px" xml:space="preserve" display="none" fill="#707070" text-anchor="middle" pointer-events="none" font-family="Tahoma, Verdana, Helvetica, Arial" font-weight="normal"  style="display: block;"><tspan style="fill-opacity: 0; stroke-opacity: 0;"  dy="0.3em">-</tspan></text></g><g id="v-3766"  label-idx="1" cursor="move" transform="matrix(1,0,0,1,900.6152954101562,1243)" style="cursor: default;"><rect joint-selector="rect" id="v-3770" fill="#ffffff" rx="3" ry="3" x="0" y="0" width="0" height="0"  display="none"></rect><text joint-selector="text" id="v-3769" fill="#000000" font-size="14" text-anchor="middle" text-vertical-anchor="middle" pointer-events="none"></text></g></g></g><!--z-index:25--><g   id="j_325"  style="opacity: 1;"><path fill="none" cursor="pointer" stroke="transparent" stroke-linecap="round" joint-selector="wrapper" id="v-3787" stroke-width="10" stroke-linejoin="round" d="M 925 643 L 925 628 C 925 621.3333333333333 928.3333333333333 618 935 618 L 1190 618 C 1196.6666666666665 618 1203.3333333333333 618 1210 618 L 1250 618" style="stroke-width: 10px;"></path><path fill="none" pointer-events="none" joint-selector="line" id="v-3786" stroke="#707070" stroke-width="2" stroke-linejoin="round" stroke-dasharray="8 8" d="M 925 643 L 925 628 C 925 621.3333333333333 928.3333333333333 618 935 618 L 1190 618 C 1196.6666666666665 618 1203.3333333333333 618 1210 618 L 1250 618" marker-end="url(#v-2-480243263)"></path><g id="v-3779" ><g id="v-3780"  label-idx="0" cursor="move" transform="matrix(1,0,0,1,1076.8846435546875,618)" style="cursor: default;"><rect joint-selector="rect" id="v-3783" fill="#111111" rx="3" ry="3" x="0" y="0" width="0" height="0" pointer-events="none"  style="display: block;"></rect><text joint-selector="text" id="v-3782" font-size="12px" xml:space="preserve" display="none" fill="#707070" text-anchor="middle" pointer-events="none" font-family="Tahoma, Verdana, Helvetica, Arial" font-weight="normal"  style="display: block;"><tspan style="fill-opacity: 0; stroke-opacity: 0;"  dy="0.3em">-</tspan></text></g><g id="v-3781"  label-idx="1" cursor="move" transform="matrix(1,0,0,1,1066.8846435546875,618)" style="cursor: default;"><rect joint-selector="rect" id="v-3785" fill="#ffffff" rx="3" ry="3" x="0" y="0" width="0" height="0"  display="none"></rect><text joint-selector="text" id="v-3784" fill="#000000" font-size="14" text-anchor="middle" text-vertical-anchor="middle" pointer-events="none"></text></g></g></g><!--z-index:26--><g   id="j_326"  style="opacity: 1;"><path fill="none" cursor="pointer" stroke="transparent" stroke-linecap="round" joint-selector="wrapper" id="v-3802" stroke-width="10" stroke-linejoin="round" d="M 925 943 L 925 958 C 925 964.6666666666665 928.3333333333333 967.9999999999999 935 968 L 1190 968 C 1196.6666666666665 967.9999999999999 1203.3333333333333 967.9999999999999 1210 968 L 1250 968" style="stroke-width: 10px;"></path><path fill="none" pointer-events="none" joint-selector="line" id="v-3801" stroke="#707070" stroke-width="2" stroke-linejoin="round" stroke-dasharray="8 8" d="M 925 943 L 925 958 C 925 964.6666666666665 928.3333333333333 967.9999999999999 935 968 L 1190 968 C 1196.6666666666665 967.9999999999999 1203.3333333333333 967.9999999999999 1210 968 L 1250 968" marker-end="url(#v-2-480243263)"></path><g id="v-3794" ><g id="v-3795"  label-idx="0" cursor="move" transform="matrix(1,0,0,1,1076.8846435546875,968)" style="cursor: default;"><rect joint-selector="rect" id="v-3798" fill="#111111" rx="3" ry="3" x="0" y="0" width="0" height="0" pointer-events="none"  style="display: block;"></rect><text joint-selector="text" id="v-3797" font-size="12px" xml:space="preserve" display="none" fill="#707070" text-anchor="middle" pointer-events="none" font-family="Tahoma, Verdana, Helvetica, Arial" font-weight="normal"  style="display: block;"><tspan style="fill-opacity: 0; stroke-opacity: 0;"  dy="0.3em">-</tspan></text></g><g id="v-3796"  label-idx="1" cursor="move" transform="matrix(1,0,0,1,1066.8846435546875,968)" style="cursor: default;"><rect joint-selector="rect" id="v-3800" fill="#ffffff" rx="3" ry="3" x="0" y="0" width="0" height="0"  display="none"></rect><text joint-selector="text" id="v-3799" fill="#000000" font-size="14" text-anchor="middle" text-vertical-anchor="middle" pointer-events="none"></text></g></g></g><!--z-index:27--><!--z-index:28--><!--z-index:29--><!--z-index:30--><!--z-index:31--><!--z-index:32--><!--z-index:33--><!--z-index:34--><!--z-index:35--><!--z-index:36--><!--z-index:37--><!--z-index:38--><!--z-index:39--><!--z-index:40--><!--z-index:41--><!--z-index:42--><!--z-index:43--><!--z-index:44--><!--z-index:45--><!--z-index:46--><!--z-index:47--><!--z-index:48--><!--z-index:49--><!--z-index:50--><!--z-index:51--><!--z-index:52--><!--z-index:53--><!--z-index:54--><!--z-index:55--><!--z-index:56--><!--z-index:57--><!--z-index:58--><!--z-index:59--><!--z-index:60--><!--z-index:61--><!--z-index:62--><!--z-index:63--><!--z-index:64--><!--z-index:65--><!--z-index:66--><!--z-index:67--><!--z-index:68--><!--z-index:69--><!--z-index:70--><!--z-index:71--><!--z-index:72--><!--z-index:73--><!--z-index:74--><!--z-index:75--><!--z-index:76--><!--z-index:77--><!--z-index:78--><!--z-index:79--><!--z-index:80--><!--z-index:81--><!--z-index:82--><!--z-index:83--><!--z-index:84--><!--z-index:85--><!--z-index:86--><!--z-index:87--><!--z-index:88--><!--z-index:89--><!--z-index:90--><!--z-index:91--><!--z-index:92--><!--z-index:93--><!--z-index:94--><!--z-index:95--><!--z-index:96--><!--z-index:97--><!--z-index:98--><!--z-index:99--><!--z-index:100--><!--z-index:101--><!--z-index:102--><!--z-index:103--><!--z-index:104--><!--z-index:105--><!--z-index:106--><!--z-index:107--></g><g  style="user-select: none;"></g><g ></g><g  display="none"></g></g></svg>